<svg width="24" height="24" viewBox="0 0 24 24" fill="none" xmlns="http://www.w3.org/2000/svg">
<path d="M1.20837 18.6663L6.46464 13.9357C7.25529 13.2241 8.46462 13.2559 9.21678 14.0081L11.2084 15.9997L16.4608 10.7472C17.2419 9.96617 18.5082 9.96617 19.2893 10.7472L22.5417 13.9997M10.5417 7.99967C10.5417 8.73605 9.94475 9.33301 9.20837 9.33301C8.47199 9.33301 7.87504 8.73605 7.87504 7.99967C7.87504 7.26329 8.47199 6.66634 9.20837 6.66634C9.94475 6.66634 10.5417 7.26329 10.5417 7.99967ZM3.20838 22.6663H20.5417C21.6463 22.6663 22.5417 21.7709 22.5417 20.6663V3.33301C22.5417 2.22844 21.6463 1.33301 20.5417 1.33301H3.20837C2.1038 1.33301 1.20837 2.22844 1.20837 3.33301V20.6663C1.20837 21.7709 2.10381 22.6663 3.20838 22.6663Z" stroke="#1A71F6" stroke-width="1.4" stroke-linecap="round" stroke-linejoin="round"/>
</svg>
