<svg width="28" height="28" viewBox="0 0 28 28" fill="none" xmlns="http://www.w3.org/2000/svg">
<circle cx="14" cy="14" r="14" fill="#006691"/>
<circle cx="14" cy="14" r="13.5" stroke="#8D4949" stroke-opacity="0.2"/>
<path d="M14.0008 8.44721C15.8095 8.44721 16.0237 8.45398 16.7382 8.48656C17.1678 8.49182 17.5933 8.5707 17.9962 8.71979C18.2884 8.83248 18.5538 9.00511 18.7753 9.22656C18.9967 9.44802 19.1694 9.71339 19.282 10.0056C19.4311 10.4085 19.51 10.8341 19.5153 11.2637C19.5475 11.9782 19.5546 12.1924 19.5546 14.0011C19.5546 15.8098 19.5479 16.024 19.5153 16.7385C19.51 17.1681 19.4311 17.5936 19.282 17.9966C19.1694 18.2888 18.9967 18.5541 18.7753 18.7756C18.5538 18.997 18.2884 19.1697 17.9962 19.2824C17.5933 19.4315 17.1678 19.5103 16.7382 19.5156C16.024 19.5479 15.8098 19.5549 14.0008 19.5549C12.1917 19.5549 11.9775 19.5482 11.2633 19.5156C10.8337 19.5103 10.4082 19.4315 10.0053 19.2824C9.71307 19.1697 9.44769 18.997 9.22624 18.7756C9.00479 18.5541 8.83216 18.2888 8.71947 17.9966C8.57038 17.5936 8.4915 17.1681 8.48624 16.7385C8.45398 16.024 8.44689 15.8098 8.44689 14.0011C8.44689 12.1924 8.45366 11.9782 8.48624 11.2637C8.4915 10.8341 8.57038 10.4085 8.71947 10.0056C8.83216 9.71339 9.00479 9.44802 9.22624 9.22656C9.44769 9.00511 9.71307 8.83248 10.0053 8.71979C10.4082 8.5707 10.8337 8.49182 11.2633 8.48656C11.9779 8.4543 12.192 8.44721 14.0008 8.44721V8.44721ZM14.0008 7.22656C12.162 7.22656 11.9304 7.2343 11.2079 7.26721C10.6456 7.27839 10.0893 7.38485 9.56269 7.58205C9.11092 7.75226 8.70172 8.019 8.36366 8.36366C8.01869 8.70184 7.75172 9.11127 7.5814 9.56334C7.3842 10.09 7.27775 10.6463 7.26656 11.2085C7.2343 11.9304 7.22656 12.162 7.22656 14.0008C7.22656 15.8395 7.2343 16.0711 7.26721 16.7937C7.27839 17.3559 7.38485 17.9122 7.58205 18.4388C7.75218 18.8908 8.01892 19.3002 8.36366 19.6385C8.70191 19.9832 9.11133 20.25 9.56334 20.4201C10.09 20.6173 10.6463 20.7238 11.2085 20.7349C11.9311 20.7672 12.1617 20.7756 14.0014 20.7756C15.8411 20.7756 16.0717 20.7679 16.7943 20.7349C17.3565 20.7238 17.9128 20.6173 18.4395 20.4201C18.8893 20.2457 19.2978 19.9794 19.6389 19.6381C19.98 19.2968 20.246 18.8881 20.4201 18.4382C20.6173 17.9115 20.7238 17.3553 20.735 16.793C20.7672 16.0711 20.775 15.8395 20.775 14.0008C20.775 12.162 20.7672 11.9304 20.7343 11.2079C20.7231 10.6456 20.6167 10.0893 20.4195 9.56269C20.2493 9.11068 19.9826 8.70126 19.6379 8.36301C19.2996 8.01828 18.8902 7.75153 18.4382 7.5814C17.9115 7.3842 17.3553 7.27775 16.793 7.26656C16.0711 7.2343 15.8395 7.22656 14.0008 7.22656Z" fill="white"/>
<path d="M14.001 7.72656C15.8369 7.72656 16.0599 7.73387 16.7705 7.76562V7.7666H16.7832C17.2884 7.77667 17.7884 7.87177 18.2617 8.04883V8.0498C18.6456 8.1943 18.994 8.4201 19.2812 8.71289L19.2881 8.71973C19.5442 8.97109 19.7494 9.26903 19.8936 9.59668L19.9512 9.73926C20.1061 10.1534 20.1991 10.5877 20.2266 11.0283L20.2344 11.2178V11.2305C20.2668 11.9416 20.2754 12.1647 20.2754 14.001C20.2754 15.3776 20.2704 15.8474 20.2549 16.2959L20.2354 16.7705V16.7832C20.2253 17.287 20.1302 17.7857 19.9541 18.2578C19.8051 18.6429 19.577 18.9931 19.2852 19.2852C18.9946 19.5759 18.6466 19.8029 18.2637 19.9521C17.7901 20.1294 17.2897 20.2253 16.7842 20.2354H16.7715C16.0604 20.2677 15.8382 20.2754 14.001 20.2754C12.6241 20.2754 12.1547 20.2706 11.7061 20.2549L11.2305 20.2354H11.2188C10.713 20.2253 10.212 20.1295 9.73828 19.9521H9.73926C9.35543 19.8076 9.00794 19.5808 8.7207 19.2881L8.71387 19.2812L8.60742 19.1709C8.36612 18.9068 8.17624 18.5993 8.0498 18.2637H8.05078C7.87346 17.7901 7.77769 17.2897 7.76758 16.7842L7.7666 16.7705C7.73423 16.0597 7.72656 15.8367 7.72656 14.001C7.72656 12.1647 7.73387 11.9413 7.76562 11.2305H7.7666V11.2188C7.77666 10.713 7.87243 10.212 8.0498 9.73828L8.04883 9.7373C8.19352 9.3541 8.42135 9.00746 8.71387 8.7207L8.7207 8.71387C9.00747 8.4215 9.35416 8.1944 9.7373 8.0498L9.73828 8.05078C10.212 7.87343 10.7121 7.77764 11.2178 7.76758L11.2305 7.7666C11.9416 7.73422 12.1647 7.72656 14.001 7.72656ZM14.001 7.94727C12.2034 7.94727 11.9701 7.95418 11.2568 7.98633C10.7703 7.99233 10.2884 8.08215 9.83203 8.25098L9.8252 8.25293C9.46794 8.39071 9.14382 8.60232 8.87305 8.87305C8.6699 9.07619 8.50033 9.30969 8.37012 9.56445L8.25293 9.8252L8.25098 9.83203C8.10318 10.2315 8.0156 10.6506 7.99219 11.0752L7.98633 11.2412C7.95323 11.967 7.94727 12.1906 7.94727 14.001C7.94727 15.8117 7.95357 16.0351 7.98633 16.7607V16.7598C7.99394 17.2414 8.08381 17.7181 8.25098 18.1699L8.25293 18.1768C8.39074 18.534 8.60229 18.8582 8.87305 19.1289C9.14383 19.3997 9.46792 19.6112 9.8252 19.749L9.83203 19.751C10.2884 19.9198 10.7703 20.0086 11.2568 20.0146C11.9698 20.0471 12.2034 20.0547 14.001 20.0547C15.7974 20.0547 16.0314 20.0467 16.7432 20.0146L16.7441 20.0156C17.2309 20.0097 17.7134 19.9199 18.1699 19.751L18.1758 19.749C18.5331 19.6112 18.8581 19.3997 19.1289 19.1289C19.3996 18.8581 19.6112 18.534 19.749 18.1768L19.751 18.1699C19.9199 17.7134 20.0097 17.2309 20.0156 16.7441L20.0146 16.7432C20.047 16.0313 20.0547 15.7967 20.0547 14.001C20.0547 12.6425 20.051 12.1776 20.0352 11.7236L20.0146 11.2412C20.0069 10.76 19.918 10.2835 19.751 9.83203L19.749 9.8252L19.6318 9.56445C19.5016 9.30964 19.3321 9.07622 19.1289 8.87305C18.8581 8.60223 18.5331 8.39074 18.1758 8.25293L18.1699 8.25098L17.9971 8.19141C17.5923 8.0611 17.17 7.99154 16.7441 7.98633H16.7432C16.0311 7.95392 15.7967 7.94727 14.001 7.94727Z" stroke="#8D4949" stroke-opacity="0.2"/>
<path d="M14.0021 10.5234C13.3141 10.5234 12.6416 10.7275 12.0695 11.1097C11.4974 11.492 11.0515 12.0353 10.7882 12.6709C10.5249 13.3066 10.4561 14.006 10.5903 14.6808C10.7245 15.3556 11.0558 15.9755 11.5423 16.462C12.0288 16.9485 12.6487 17.2798 13.3235 17.414C13.9983 17.5482 14.6977 17.4794 15.3334 17.2161C15.969 16.9528 16.5123 16.5069 16.8946 15.9348C17.2768 15.3627 17.4809 14.6902 17.4809 14.0021C17.4809 13.0795 17.1144 12.1947 16.462 11.5423C15.8096 10.8899 14.9248 10.5234 14.0021 10.5234ZM14.0021 16.2602C13.5555 16.2602 13.119 16.1278 12.7476 15.8797C12.3763 15.6315 12.0869 15.2789 11.916 14.8663C11.7451 14.4537 11.7003 13.9996 11.7875 13.5616C11.8746 13.1236 12.0897 12.7213 12.4055 12.4055C12.7213 12.0897 13.1236 11.8746 13.5616 11.7875C13.9996 11.7003 14.4537 11.7451 14.8663 11.916C15.2789 12.0869 15.6315 12.3763 15.8797 12.7476C16.1278 13.119 16.2602 13.5555 16.2602 14.0021C16.2602 14.601 16.0223 15.1754 15.5988 15.5988C15.1754 16.0223 14.601 16.2602 14.0021 16.2602V16.2602Z" fill="white"/>
<path d="M14.002 11.0234C14.7919 11.0234 15.5498 11.337 16.1084 11.8955C16.667 12.4541 16.9804 13.212 16.9805 14.002C16.9805 14.5911 16.8058 15.1674 16.4785 15.6572C16.1512 16.1469 15.6858 16.5285 15.1416 16.7539C14.5974 16.9793 13.9986 17.0387 13.4209 16.9238C12.8431 16.8089 12.3121 16.525 11.8955 16.1084C11.479 15.6918 11.196 15.1607 11.0811 14.583C10.9662 14.0053 11.0246 13.4065 11.25 12.8623C11.4755 12.318 11.8578 11.8527 12.3477 11.5254C12.8374 11.1982 13.413 11.0235 14.002 11.0234ZM15.0576 11.4541C14.5536 11.2454 13.9989 11.1905 13.4639 11.2969C12.9289 11.4033 12.4374 11.6661 12.0518 12.0518C11.6661 12.4374 11.4033 12.9289 11.2969 13.4639C11.1905 13.9989 11.2454 14.5536 11.4541 15.0576C11.6628 15.5615 12.0163 15.9919 12.4697 16.2949C12.9232 16.5979 13.4565 16.7597 14.002 16.7598C14.7334 16.7598 15.4349 16.4694 15.9521 15.9521C16.4694 15.4349 16.7598 14.7334 16.7598 14.002C16.7597 13.4565 16.5979 12.9232 16.2949 12.4697C15.9919 12.0163 15.5615 11.6628 15.0576 11.4541Z" stroke="#8D4949" stroke-opacity="0.2"/>
<path d="M17.6176 11.1981C18.0665 11.1981 18.4305 10.8341 18.4305 10.3852C18.4305 9.93621 18.0665 9.57227 17.6176 9.57227C17.1686 9.57227 16.8047 9.93621 16.8047 10.3852C16.8047 10.8341 17.1686 11.1981 17.6176 11.1981Z" fill="white"/>
<path d="M17.6172 10.0723C17.7899 10.0723 17.9304 10.2121 17.9307 10.3848C17.9307 10.5576 17.79 10.6982 17.6172 10.6982C17.4446 10.698 17.3047 10.5574 17.3047 10.3848C17.3049 10.2123 17.4447 10.0725 17.6172 10.0723Z" stroke="#8D4949" stroke-opacity="0.2"/>
</svg>
