<svg width="25" height="25" viewBox="0 0 25 25" fill="none" xmlns="http://www.w3.org/2000/svg">
<circle cx="12.5" cy="12.5" r="12.5" fill="#006691"/>
<path d="M10.8689 19.1749V13.6214H9V11.457H10.8689V9.8609C10.8689 8.00861 12.0002 7 13.6526 7C14.4441 7 15.1243 7.05893 15.3226 7.08527V9.02102L14.1766 9.02154C13.2779 9.02154 13.1039 9.44857 13.1039 10.0752V11.457H15.2471L14.9681 13.6214H13.1039V19.1749H10.8689Z" fill="white"/>
<path d="M13.6523 7.5C14.1071 7.5 14.5224 7.5208 14.8223 7.54199V8.52148H14.1768C13.6609 8.52148 13.2138 8.64349 12.9209 8.99121C12.6443 9.31976 12.6035 9.74049 12.6035 10.0752V11.957H14.6787L14.5283 13.1211H12.6035V18.6748H11.3691V13.1211H9.5V11.957H11.3691V9.86133C11.3691 9.03882 11.6176 8.46225 11.9922 8.0918C12.3685 7.71987 12.9277 7.50005 13.6523 7.5Z" stroke="#8D4949" stroke-opacity="0.2"/>
</svg>
