<svg width="28" height="28" viewBox="0 0 28 28" fill="none" xmlns="http://www.w3.org/2000/svg">
<circle cx="14" cy="14" r="14" fill="#006691"/>
<circle cx="14" cy="14" r="13.5" stroke="#8D4949" stroke-opacity="0.2"/>
<path fill-rule="evenodd" clip-rule="evenodd" d="M14.6068 7.22656C11.0159 7.22656 8.12695 10.1155 8.12695 13.7065C8.12695 16.5684 9.98992 18.9984 12.5549 19.8624C12.8789 19.9164 12.9869 19.7274 12.9869 19.5384C12.9869 19.3764 12.9869 18.9714 12.9869 18.4314C11.1779 18.8364 10.7999 17.5674 10.7999 17.5674C10.5029 16.8114 10.0709 16.6224 10.0709 16.6224C9.47693 16.2174 10.1249 16.2174 10.1249 16.2174C10.7729 16.2714 11.1239 16.8924 11.1239 16.8924C11.6909 17.8914 12.6359 17.5944 13.0139 17.4324C13.0679 17.0004 13.2299 16.7304 13.4189 16.5684C11.9879 16.4064 10.4759 15.8394 10.4759 13.3555C10.4759 12.6535 10.7189 12.0595 11.1509 11.6275C11.0969 11.4655 10.8539 10.8175 11.2049 9.89952C11.2049 9.89952 11.7449 9.73752 12.9869 10.5745C13.4999 10.4395 14.0669 10.3585 14.6068 10.3585C15.1468 10.3585 15.7138 10.4395 16.2268 10.5745C17.4688 9.73752 18.0088 9.89952 18.0088 9.89952C18.3598 10.7905 18.1438 11.4385 18.0628 11.6275C18.4678 12.0865 18.7378 12.6535 18.7378 13.3555C18.7378 15.8394 17.2258 16.3794 15.7678 16.5414C16.0108 16.7304 16.1998 17.1354 16.1998 17.7294C16.1998 18.5934 16.1998 19.2954 16.1998 19.5114C16.1998 19.6734 16.3078 19.8894 16.6588 19.8354C19.2238 18.9984 21.0867 16.5684 21.0867 13.7065C21.0867 10.1155 18.1978 7.22656 14.6068 7.22656Z" fill="white"/>
<path d="M11.7031 18.9375C11.9333 18.9948 12.1936 19.0211 12.4873 19.0049V19.3066C12.2158 19.2027 11.9543 19.0783 11.7031 18.9375ZM14.6064 7.72656C17.9211 7.72656 20.5867 10.3914 20.5869 13.7061C20.5869 16.2727 18.9623 18.462 16.7002 19.291V17.7295C16.7002 17.4341 16.6564 17.158 16.5771 16.9131C17.1157 16.7915 17.6611 16.5848 18.1191 16.2041C18.8207 15.6209 19.2373 14.7068 19.2373 13.3555C19.2373 12.6274 18.992 12.0213 18.6221 11.5254C18.7213 11.1393 18.7825 10.4998 18.4736 9.71582L18.3848 9.49023L18.1523 9.4209L18.0195 9.8623C18.1521 9.42048 18.1518 9.42006 18.1514 9.41992H18.1484C18.1471 9.41954 18.1459 9.41836 18.1445 9.41797C18.1418 9.4172 18.1387 9.41681 18.1357 9.41602C18.1296 9.41439 18.1225 9.41281 18.1152 9.41113C18.1004 9.40771 18.0829 9.40355 18.0635 9.40039C18.0246 9.39407 17.9767 9.3894 17.9199 9.3877C17.8062 9.38428 17.6585 9.39415 17.4756 9.43457C17.1452 9.50756 16.702 9.67795 16.1318 10.0391C15.642 9.92703 15.1158 9.8584 14.6064 9.8584C14.097 9.85843 13.571 9.92696 13.0811 10.0391C12.5112 9.67826 12.0685 9.50755 11.7383 9.43457C11.5554 9.39417 11.4076 9.3843 11.2939 9.3877C11.2373 9.3894 11.1892 9.39408 11.1504 9.40039C11.131 9.40355 11.1135 9.40771 11.0986 9.41113C11.0913 9.41282 11.0843 9.41438 11.0781 9.41602C11.0751 9.41682 11.0721 9.41719 11.0693 9.41797C11.0679 9.41836 11.0668 9.41954 11.0654 9.41992H11.0625C11.062 9.42007 11.0614 9.42055 11.2051 9.89941L11.0615 9.4209L10.8262 9.49121L10.7383 9.7207C10.4365 10.5098 10.5079 11.1418 10.5938 11.502C10.1909 12.0067 9.97559 12.6445 9.97559 13.3555C9.97559 14.4835 10.2675 15.3086 10.7676 15.8936C10.5971 15.806 10.3962 15.7379 10.166 15.7188L10.1455 15.7178H10.1074C10.0989 15.718 10.0873 15.7181 10.0742 15.7188C10.0485 15.72 10.0125 15.7225 9.97168 15.7275C9.90864 15.7353 9.76077 15.7566 9.625 15.835C9.55227 15.877 9.43981 15.9604 9.37207 16.1094C9.29692 16.2752 9.31199 16.4436 9.36426 16.5742C9.37193 16.5934 9.3816 16.6112 9.39062 16.6289C8.90486 15.764 8.62695 14.7668 8.62695 13.7061C8.62717 10.3916 11.292 7.72678 14.6064 7.72656ZM9.41699 16.6758C9.45861 16.7441 9.50683 16.8002 9.55078 16.8438C9.61841 16.9107 9.69951 16.9741 9.78906 17.0352L9.82812 17.0615L9.85547 17.0732C9.85772 17.0745 9.86229 17.0776 9.86914 17.082C9.88885 17.0949 9.9267 17.1222 9.97461 17.1689C10.068 17.2601 10.2084 17.4339 10.3301 17.7393C10.3308 17.7415 10.3322 17.7437 10.333 17.7461C10.3389 17.763 10.346 17.785 10.3564 17.8105C10.3771 17.8611 10.4082 17.9277 10.4512 18.0039C10.048 17.6127 9.69837 17.1664 9.41699 16.6758ZM11.4375 16.4678C11.8071 16.6986 12.212 16.8424 12.6133 16.9365C12.6009 16.9746 12.5896 17.0136 12.5791 17.0537C12.4553 17.0874 12.318 17.1112 12.1826 17.0996C11.9875 17.0829 11.7584 16.9975 11.5586 16.6455V16.6445L11.5576 16.6436C11.5569 16.6424 11.5555 16.6411 11.5547 16.6396C11.553 16.6367 11.5513 16.633 11.5488 16.6289C11.5439 16.6207 11.5372 16.6102 11.5293 16.5977C11.5134 16.5726 11.4912 16.5389 11.4629 16.5C11.4552 16.4895 11.4462 16.4792 11.4375 16.4678ZM9.86816 17.0791H9.86621C9.86508 17.0786 9.86426 17.0776 9.86328 17.0771L9.86133 17.0762L9.86816 17.0791Z" stroke="#8D4949" stroke-opacity="0.2"/>
</svg>
