<svg width="31" height="30" viewBox="0 0 31 30" fill="none" xmlns="http://www.w3.org/2000/svg">
<path d="M21.125 10C23.3628 10 25.5089 10.8889 27.0912 12.4713C28.6736 14.0536 29.5625 16.1997 29.5625 18.4375V28.2812H23.9375V18.4375C23.9375 17.6916 23.6412 16.9762 23.1137 16.4488C22.5863 15.9213 21.8709 15.625 21.125 15.625C20.3791 15.625 19.6637 15.9213 19.1363 16.4488C18.6088 16.9762 18.3125 17.6916 18.3125 18.4375V28.2812H12.6875V18.4375C12.6875 16.1997 13.5764 14.0536 15.1588 12.4713C16.7411 10.8889 18.8872 10 21.125 10Z" stroke="white" stroke-width="2" stroke-linecap="round" stroke-linejoin="round"/>
<path d="M7.0625 11.4062H1.4375V28.2812H7.0625V11.4062Z" stroke="white" stroke-width="2" stroke-linecap="round" stroke-linejoin="round"/>
<path d="M4.25 7.1875C5.8033 7.1875 7.0625 5.9283 7.0625 4.375C7.0625 2.8217 5.8033 1.5625 4.25 1.5625C2.6967 1.5625 1.4375 2.8217 1.4375 4.375C1.4375 5.9283 2.6967 7.1875 4.25 7.1875Z" stroke="white" stroke-width="2" stroke-linecap="round" stroke-linejoin="round"/>
</svg>
