<svg width="156" height="27" viewBox="0 0 156 27" fill="none" xmlns="http://www.w3.org/2000/svg">
<path d="M0.71675 25.3637C1.383 23.3347 2.01896 21.3587 2.62464 19.4356C2.88206 18.6482 3.14704 17.8079 3.4196 16.9145C3.69215 16.0211 3.96471 15.1277 4.23727 14.2344C4.50982 13.3258 4.76724 12.4552 5.00951 11.6224C5.25178 10.7895 5.4562 10.0476 5.62276 9.39648C6.45557 9.39648 7.24295 9.35106 7.98491 9.2602C8.36346 9.21478 8.74958 9.16935 9.14327 9.12393C9.55211 9.0785 9.96851 9.04064 10.3925 9.01036L10.2562 10.1233C10.2259 10.3353 10.1956 10.5548 10.1654 10.782C10.1351 10.994 10.1048 11.2135 10.0745 11.4407C10.0442 11.6678 10.0064 11.9025 9.96094 12.1448C9.91552 12.3719 9.87766 12.6066 9.84738 12.8489C9.78681 13.3183 9.69596 13.9769 9.57482 14.8249C9.45368 15.6577 9.30984 16.5662 9.14327 17.5504H9.43854C9.87766 16.3997 10.2411 15.4457 10.5288 14.6886C10.8165 13.9164 11.0512 13.288 11.2329 12.8034C11.4903 12.0918 11.7704 11.3725 12.0733 10.6457C12.3761 9.91888 12.6259 9.35863 12.8228 8.96493C13.1862 8.93465 13.6177 8.88922 14.1174 8.82866C14.6322 8.75295 15.1471 8.66967 15.6619 8.57881C16.1919 8.48796 16.6461 8.41225 17.0247 8.35168C16.8127 9.62361 16.6159 10.9107 16.4341 12.2129C16.2676 13.5 16.1162 14.734 15.9799 15.9151C15.8588 17.081 15.7528 18.1334 15.6619 19.0722C15.5711 20.011 15.4878 20.9423 15.4121 21.8659C15.3364 22.7744 15.2606 23.6754 15.1849 24.5688L11.2329 25.2729C11.2329 25.2426 11.2556 24.9019 11.301 24.2508C11.3464 23.5997 11.4221 22.7896 11.5281 21.8205C11.6341 20.8514 11.7401 19.9353 11.8461 19.0722C11.9521 18.194 12.0581 17.4747 12.1641 16.9145H11.9597C11.5811 18.0653 11.1193 19.3221 10.5742 20.6848C10.0442 22.0476 9.52182 23.5543 9.007 25.2047C8.47703 25.2199 8.02277 25.2426 7.64422 25.2729C7.26567 25.288 6.82655 25.3107 6.32686 25.341L7.05368 16.9145H6.71298C6.69784 17.081 6.6297 17.4066 6.50857 17.8911C6.38743 18.3605 6.24358 18.9057 6.07702 19.5265C5.91046 20.1322 5.73632 20.7378 5.55462 21.3435C4.87323 23.7208 4.50982 24.9776 4.4644 25.1139L0.71675 25.3637ZM19.2083 25.9088C18.7541 25.9088 18.2922 25.8104 17.8228 25.6136C17.3534 25.4167 16.9597 25.1139 16.6418 24.705C16.3238 24.2962 16.1648 23.7738 16.1648 23.1378V22.9561C16.1648 22.8804 16.1724 22.8199 16.1875 22.7744C16.2329 22.3807 16.2935 21.8659 16.3692 21.23C16.4601 20.594 16.566 19.905 16.6872 19.1631C16.8083 18.406 16.9295 17.6564 17.0506 16.9145C17.1869 16.1725 17.308 15.4987 17.414 14.893C17.6411 13.6817 17.8228 12.705 17.9591 11.9631C18.0954 11.2211 18.2014 10.6533 18.2771 10.2596C18.3679 9.85074 18.4361 9.5479 18.4815 9.35106C18.6481 9.33591 18.8222 9.32077 19.0039 9.30563C19.2008 9.27535 19.4052 9.25263 19.6172 9.23749C19.8291 9.20721 20.0336 9.18449 20.2304 9.16935C20.4424 9.15421 20.6468 9.13907 20.8437 9.12393L22.2292 8.98765C22.0323 9.91131 21.843 10.7895 21.6613 11.6224C21.4948 12.44 21.3358 13.2198 21.1844 13.9618L20.1396 18.9814C20.0487 19.3599 19.9806 19.6779 19.9351 19.9353C19.8746 20.1776 19.8064 20.488 19.7307 20.8665C19.6702 21.23 19.6399 21.5631 19.6399 21.8659C19.6399 22.1082 19.7004 22.3126 19.8216 22.4792C19.9427 22.6306 20.0941 22.7063 20.2758 22.7063C20.5333 22.7063 20.7452 22.6079 20.9118 22.411C21.0784 22.2142 21.2146 21.9719 21.3206 21.6842C21.4266 21.3965 21.5099 21.1088 21.5705 20.8211C21.631 20.5183 21.684 20.276 21.7295 20.0943C21.8809 19.3978 22.0172 18.724 22.1383 18.0728C22.2746 17.4066 22.4109 16.7025 22.5471 15.9605C22.6986 15.2186 22.8651 14.3631 23.0468 13.394C23.168 12.7277 23.2891 12.0539 23.4102 11.3725C23.5465 10.676 23.6752 9.97188 23.7964 9.2602L27.2487 9.03307C27.2487 9.03307 27.1806 9.39648 27.0443 10.1233C26.908 10.8501 26.7112 11.9479 26.4538 13.4167C26.3478 13.9769 26.2266 14.6053 26.0904 15.3019C25.9692 15.9984 25.833 16.7025 25.6815 17.4142C25.5301 18.1258 25.3863 18.7997 25.25 19.4356C25.1288 20.0716 25.0153 20.6167 24.9093 21.071C24.6065 22.3126 24.137 23.2893 23.5011 24.0009C22.8651 24.6975 22.161 25.1896 21.3888 25.4773C20.6317 25.765 19.9049 25.9088 19.2083 25.9088ZM25.0898 25.6136C25.544 23.4331 25.9756 21.3208 26.3844 19.2766C26.7175 17.3536 27.0431 15.5063 27.3611 13.7347C27.679 11.9631 27.9062 10.3353 28.0424 8.85137C28.1484 8.86651 28.2393 8.87408 28.315 8.87408C28.4059 8.87408 28.4816 8.87408 28.5421 8.87408H29.0191C29.4128 8.87408 29.8519 8.86651 30.3365 8.85137C30.821 8.82109 31.2677 8.79837 31.6765 8.78323C31.7825 9.3132 31.8809 9.8356 31.9718 10.3504C32.0778 10.8653 32.1686 11.3649 32.2443 11.8495C32.3201 12.2735 32.4033 12.7126 32.4942 13.1668C32.585 13.606 32.6759 14.0526 32.7667 14.5069C32.8425 14.9612 32.9182 15.3851 32.9939 15.7788C33.0847 16.1574 33.1604 16.5057 33.221 16.8236C33.4027 15.9303 33.5693 15.052 33.7207 14.1889C33.8873 13.3258 34.0462 12.546 34.1977 11.8495L34.8563 8.80594L37.6273 8.46525C37.3699 9.61604 37.1276 10.7441 36.9005 11.8495C36.6734 12.9549 36.4614 14.0224 36.2646 15.052C35.886 16.8993 35.5529 18.6407 35.2652 20.276C34.9775 21.9113 34.7579 23.3347 34.6065 24.5461C34.7731 24.5461 34.7428 24.5688 34.5156 24.6142C34.3037 24.6445 33.9857 24.6975 33.5617 24.7732C33.1377 24.8338 32.6835 24.917 32.1989 25.023C31.7144 25.129 31.2828 25.2577 30.9043 25.4091C30.8589 24.8035 30.8134 24.2129 30.768 23.6375C30.7226 23.0621 30.6696 22.5019 30.609 21.9568C30.5182 20.9877 30.4122 20.0262 30.291 19.0722C30.1699 18.1183 30.0488 17.3612 29.9276 16.8009C29.8216 17.4672 29.6929 18.2318 29.5415 19.0949C29.3901 19.9429 29.2235 20.7984 29.0418 21.6615L28.4059 24.8413L25.0898 25.6136ZM36.6086 25.6136C36.3966 25.6136 36.1846 25.5984 35.9727 25.5681C35.7607 25.553 35.5487 25.5303 35.3367 25.5L36.5405 19.3902C36.6919 18.5574 36.8509 17.6792 37.0174 16.7555C37.1992 15.8167 37.3733 14.893 37.5398 13.9845C37.7064 13.0608 37.8503 12.2053 37.9714 11.4179C38.1077 10.6306 38.2137 9.96431 38.2894 9.4192C38.9405 9.29806 39.5992 9.18449 40.2654 9.0785C40.9317 8.97251 41.613 8.91951 42.3096 8.91951C43.4301 8.91951 44.3159 9.15421 44.967 9.62361C45.6181 10.0779 46.0875 10.6836 46.3752 11.4407C46.6629 12.1826 46.8068 13.0003 46.8068 13.8937C46.8068 14.6962 46.6932 15.5441 46.4661 16.4375C46.2389 17.3157 45.9134 18.194 45.4894 19.0722C45.0806 19.9353 44.5884 20.753 44.0131 21.5252C43.1197 22.7214 42.0295 23.7057 40.7424 24.4779C39.4705 25.235 38.0925 25.6136 36.6086 25.6136ZM39.3115 22.7517C39.8414 22.4035 40.3411 21.8735 40.8105 21.1618C41.2951 20.4501 41.7493 19.5946 42.1733 18.5952C42.5519 17.6716 42.8471 16.8009 43.0591 15.9833C43.2711 15.1504 43.3771 14.4615 43.3771 13.9164C43.3771 13.3561 43.2181 12.917 42.9001 12.599C42.5973 12.281 42.1127 12.122 41.4465 12.122C41.2042 13.4243 40.9544 14.628 40.697 15.7334C40.4547 16.8388 40.2124 17.9517 39.9701 19.0722C39.743 20.1927 39.5234 21.4192 39.3115 22.7517ZM49.3825 25.5909C48.3832 25.5909 47.5655 25.2047 46.9295 24.4325C46.2936 23.6602 45.9756 22.4943 45.9756 20.9347C45.9756 20.0716 46.0816 19.1631 46.2936 18.2091C46.5056 17.2552 46.8008 16.3164 47.1794 15.3927C47.5579 14.4691 47.9971 13.6135 48.4967 12.8261C49.2993 11.5542 50.2229 10.517 51.2677 9.71446C52.3125 8.91194 53.4103 8.51067 54.5611 8.51067C55.4696 8.51067 56.1662 8.74538 56.6507 9.21478C57.1504 9.66904 57.4987 10.2596 57.6955 10.9864C57.8924 11.6981 57.9908 12.44 57.9908 13.2123C57.9908 15.0142 57.7106 16.6949 57.1504 18.2546C56.6053 19.799 55.8936 21.1088 55.0154 22.1839C54.1371 23.2893 53.1983 24.1372 52.199 24.7278C51.2147 25.3032 50.2759 25.5909 49.3825 25.5909ZM50.6091 21.8432C51.2904 21.8432 51.8886 21.6161 52.4034 21.1618C52.9333 20.7076 53.38 20.1322 53.7434 19.4356C54.1069 18.724 54.3794 17.982 54.5611 17.2098C54.7428 16.4375 54.8337 15.741 54.8337 15.1202C54.8337 14.8779 54.811 14.6205 54.7655 14.3479C54.7201 14.0602 54.6217 13.8104 54.4703 13.5984C54.3188 13.3864 54.0841 13.2804 53.7662 13.2804C53.0696 13.2804 52.4412 13.5378 51.881 14.0526C51.3207 14.5523 50.8513 15.1883 50.4728 15.9605C50.0942 16.7479 49.8141 17.5202 49.6324 18.2773C49.4507 19.0344 49.3598 19.7233 49.3598 20.3441C49.3598 20.6621 49.4734 20.9953 49.7005 21.3435C49.9277 21.6766 50.2305 21.8432 50.6091 21.8432ZM61.0451 25.6136C61.2571 24.5385 61.4615 23.4861 61.6584 22.4565C61.8704 21.4117 62.0748 20.382 62.2716 19.3675C62.4836 18.1864 62.6956 16.9902 62.9076 15.7788C63.1347 14.5675 63.3392 13.3864 63.5209 12.2356C63.7177 11.0848 63.8691 10.0173 63.9751 9.03307C64.2174 9.01793 64.4521 9.00279 64.6792 8.98765C64.9064 8.9725 65.1259 8.95736 65.3379 8.94222C65.5347 8.92708 65.7316 8.91194 65.9284 8.8968C66.1404 8.88165 66.3448 8.86651 66.5417 8.85137L67.6319 8.78323C67.7379 9.35863 67.8288 9.92645 67.9045 10.4867C67.9953 11.047 68.0786 11.5921 68.1543 12.122C68.2149 12.4854 68.283 12.9094 68.3587 13.394C68.4496 13.8785 68.5329 14.3782 68.6086 14.893C68.6994 15.3927 68.7827 15.8621 68.8584 16.3012C68.9493 16.7404 69.025 17.0962 69.0855 17.3687C69.237 16.5662 69.3581 15.9075 69.449 15.3927C69.5549 14.8627 69.6534 14.3555 69.7442 13.8709C69.8502 13.3713 69.9714 12.7883 70.1076 12.122L70.8117 8.80594L73.5827 8.46525C73.3253 9.6009 73.083 10.7063 72.8559 11.7813C72.6288 12.8564 72.4168 13.9012 72.2199 14.9157C71.8414 16.7479 71.5083 18.4665 71.2206 20.0716C70.9329 21.6615 70.7133 23.0546 70.5619 24.2508L66.8597 25.1139L66.519 21.6161C66.4887 21.2678 66.4433 20.8514 66.3827 20.3669C66.3221 19.8672 66.2616 19.3599 66.201 18.8451C66.1404 18.3151 66.0799 17.8381 66.0193 17.4142C65.9587 16.9751 65.9133 16.6495 65.883 16.4375C65.7316 17.3309 65.5877 18.2016 65.4515 19.0495C65.3152 19.8823 65.1638 20.6924 64.9972 21.4798C64.8912 22.0098 64.7852 22.5625 64.6792 23.1378C64.5884 23.6981 64.4824 24.2659 64.3612 24.8413L61.0451 25.6136ZM75.3117 25.5909C74.3124 25.5909 73.4947 25.2047 72.8587 24.4325C72.2228 23.6602 71.9048 22.4943 71.9048 20.9347C71.9048 20.0716 72.0108 19.1631 72.2228 18.2091C72.4348 17.2552 72.73 16.3164 73.1086 15.3927C73.4871 14.4691 73.9263 13.6135 74.4259 12.8261C75.2285 11.5542 76.1521 10.517 77.1969 9.71446C78.2417 8.91194 79.3395 8.51067 80.4903 8.51067C81.3988 8.51067 82.0954 8.74538 82.5799 9.21478C83.0796 9.66904 83.4279 10.2596 83.6247 10.9864C83.8215 11.6981 83.92 12.44 83.92 13.2123C83.92 15.0142 83.6398 16.6949 83.0796 18.2546C82.5345 19.799 81.8228 21.1088 80.9446 22.1839C80.0663 23.2893 79.1275 24.1372 78.1282 24.7278C77.1439 25.3032 76.2051 25.5909 75.3117 25.5909ZM76.5382 21.8432C77.2196 21.8432 77.8177 21.6161 78.3326 21.1618C78.8625 20.7076 79.3092 20.1322 79.6726 19.4356C80.036 18.724 80.3086 17.982 80.4903 17.2098C80.672 16.4375 80.7629 15.741 80.7629 15.1202C80.7629 14.8779 80.7402 14.6205 80.6947 14.3479C80.6493 14.0602 80.5509 13.8104 80.3995 13.5984C80.248 13.3864 80.0133 13.2804 79.6954 13.2804C78.9988 13.2804 78.3704 13.5378 77.8102 14.0526C77.2499 14.5523 76.7805 15.1883 76.402 15.9605C76.0234 16.7479 75.7433 17.5202 75.5616 18.2773C75.3799 19.0344 75.289 19.7233 75.289 20.3441C75.289 20.6621 75.4026 20.9953 75.6297 21.3435C75.8569 21.6766 76.1597 21.8432 76.5382 21.8432ZM86.2859 25.5454C85.6802 25.5454 85.0745 25.3864 84.4688 25.0685C83.8631 24.7353 83.2802 24.2129 82.7199 23.5013L84.4007 20.2079C84.5672 20.4956 84.8095 20.7681 85.1275 21.0255C85.4606 21.283 85.8089 21.4874 86.1723 21.6388C86.5357 21.7902 86.8461 21.8659 87.1035 21.8659C87.4972 21.8659 87.8682 21.7448 88.2165 21.5025C88.5799 21.2602 88.7616 20.9347 88.7616 20.5259C88.7616 19.9959 88.5193 19.5113 88.0348 19.0722C87.5502 18.6331 87.0051 18.2016 86.3994 17.7776C85.8089 17.3536 85.2638 16.8766 84.7641 16.3467C84.2795 15.8015 84.0373 15.1807 84.0373 14.4842C84.0373 13.6968 84.2644 12.97 84.7187 12.3037C85.1729 11.6224 85.7635 11.0318 86.4903 10.5321C87.2171 10.0173 87.9893 9.62361 88.807 9.35106C89.6398 9.06336 90.4272 8.91951 91.1692 8.91951C91.6991 8.91951 92.1912 9.01036 92.6455 9.19206C93.0998 9.35863 93.4632 9.63875 93.7357 10.0324C94.0083 10.4261 94.1446 10.9561 94.1446 11.6224C94.1446 11.7283 94.137 11.8343 94.1218 11.9403C94.1218 12.0463 94.1143 12.1523 94.0991 12.2583C94.084 12.3643 94.0613 12.4779 94.031 12.599C94.0158 12.705 94.0007 12.8186 93.9856 12.9397L90.6922 13.8937C90.7225 13.7725 90.7452 13.6514 90.7603 13.5302C90.7906 13.4091 90.8057 13.288 90.8057 13.1668C90.8057 12.7126 90.7225 12.387 90.5559 12.1902C90.4045 11.9782 90.2001 11.8722 89.9426 11.8722C89.8064 11.8722 89.6095 11.9479 89.3521 12.0993C89.0947 12.2356 88.86 12.4325 88.648 12.6899C88.4512 12.9321 88.3527 13.2047 88.3527 13.5075C88.3527 14.0072 88.5572 14.4236 88.966 14.7567C89.39 15.0747 89.8745 15.4003 90.4196 15.7334C90.677 15.8848 90.9647 16.1271 91.2827 16.4602C91.6007 16.7782 91.8733 17.2173 92.1004 17.7776C92.3427 18.3227 92.4638 19.0268 92.4638 19.8899C92.4638 21.0104 92.1837 21.9946 91.6234 22.8426C91.0783 23.6905 90.3363 24.3568 89.3975 24.8413C88.4587 25.3107 87.4215 25.5454 86.2859 25.5454ZM94.2056 25.5227C94.3722 24.6899 94.5387 23.8647 94.7053 23.047C94.887 22.2142 95.0535 21.3965 95.205 20.594C95.7804 17.717 96.2498 14.9612 96.6132 12.3265C96.4466 12.2962 96.2725 12.281 96.0908 12.281C95.9091 12.2659 95.7349 12.2659 95.5684 12.281C95.205 12.3113 94.8491 12.2659 94.5009 12.1448C94.516 12.0236 94.5236 11.8949 94.5236 11.7586C94.5236 11.6072 94.5236 11.4558 94.5236 11.3044C94.5236 11.1378 94.5236 10.9788 94.5236 10.8274C94.5236 10.6608 94.5311 10.5018 94.5463 10.3504C94.5614 10.1839 94.569 10.0097 94.569 9.82803C94.569 9.63118 94.5766 9.43434 94.5917 9.23749C94.9854 9.26777 95.3791 9.29049 95.7728 9.30563C96.1665 9.32077 96.5602 9.32834 96.9539 9.32834C98.0744 9.32834 99.1419 9.29049 100.156 9.21478C101.186 9.13907 102.132 9.04821 102.996 8.94222L102.746 10.1687L102.541 11.2362C102.466 11.6299 102.397 11.9403 102.337 12.1675C102.17 12.2129 102.004 12.2507 101.837 12.281C101.671 12.3113 101.504 12.334 101.337 12.3492C101.171 12.3643 100.997 12.387 100.815 12.4173C100.649 12.4476 100.482 12.4779 100.315 12.5082C100.088 13.6287 99.899 14.5978 99.7476 15.4154C99.6113 16.2331 99.4826 17.0205 99.3614 17.7776C99.2555 18.5195 99.1267 19.3372 98.9753 20.2306C98.7179 21.7599 98.4908 23.312 98.2939 24.8867L94.2056 25.5227ZM106.273 25.4546C106.303 25.1972 106.334 24.9473 106.364 24.705C106.394 24.4628 106.425 24.2205 106.455 23.9782L106.591 22.7063C106.606 22.4943 106.621 22.2975 106.637 22.1158C106.652 21.9341 106.667 21.7675 106.682 21.6161H104.706L103.797 24.8867C103.464 24.9322 103.071 24.9852 102.616 25.0457C102.162 25.0912 101.738 25.1366 101.344 25.182C101.102 25.2123 100.86 25.2426 100.618 25.2729C100.39 25.3032 100.156 25.3334 99.9135 25.3637L101.708 19.4129C101.92 18.7012 102.162 17.8911 102.435 16.9826C102.707 16.0741 102.98 15.1429 103.252 14.1889C103.54 13.235 103.805 12.3416 104.047 11.5088C104.305 10.6608 104.509 9.94916 104.66 9.37377C105.69 9.29806 106.735 9.20721 107.795 9.10121C108.87 8.99522 109.915 8.85137 110.929 8.66966C110.854 9.51762 110.778 10.4791 110.702 11.5542C110.642 12.6142 110.581 13.712 110.52 14.8476C110.475 15.9833 110.422 17.1038 110.361 18.2091C110.331 19.2539 110.293 20.3366 110.248 21.4571C110.202 22.5625 110.157 23.6981 110.112 24.864C109.884 24.8943 109.657 24.9246 109.43 24.9549C109.203 24.9852 108.976 25.0155 108.749 25.0457C108.37 25.1063 107.954 25.1744 107.5 25.2502C107.045 25.3259 106.637 25.394 106.273 25.4546ZM105.251 19.3448C105.342 19.3448 105.508 19.3372 105.751 19.3221C106.008 19.3069 106.25 19.2918 106.478 19.2766C106.705 19.2615 106.841 19.2539 106.886 19.2539C106.886 19.0571 106.917 18.6558 106.977 18.0501C107.038 17.4445 107.098 16.8085 107.159 16.1422C107.189 15.7486 107.219 15.3473 107.25 14.9385C107.295 14.5145 107.341 14.0829 107.386 13.6438L107.522 11.6678L107.182 11.6905L106.659 13.6438L105.251 19.3448ZM104.706 8.12455C104.691 8.04884 104.683 7.97313 104.683 7.89742C104.683 7.80657 104.683 7.73086 104.683 7.67029V7.26146C104.683 7.14032 104.683 7.01919 104.683 6.89805C104.683 6.76177 104.691 6.63307 104.706 6.51193V5.73969C105.221 5.20972 105.72 4.7176 106.205 4.26334C106.69 3.79394 107.159 3.35482 107.613 2.94599C108.067 2.53715 108.507 2.12075 108.931 1.69677C109.355 1.2728 109.763 0.848821 110.157 0.424845C110.233 1.4545 110.278 2.40088 110.293 3.26397C110.293 3.70309 110.308 4.14978 110.339 4.60404C110.369 5.04316 110.414 5.49742 110.475 5.96682C110.036 6.14852 109.574 6.33023 109.09 6.51193C108.605 6.69363 108.105 6.87534 107.59 7.05704C107.076 7.25389 106.576 7.44316 106.091 7.62487C105.607 7.79143 105.145 7.95799 104.706 8.12455ZM110.489 25.5454C110.656 24.3492 110.83 23.1454 111.011 21.9341C111.208 20.7227 111.405 19.5568 111.602 18.4363C111.814 17.3006 112.011 16.2785 112.193 15.37C112.389 14.3858 112.586 13.3864 112.783 12.3719C112.98 11.3574 113.184 10.3353 113.396 9.30563L117.371 8.78323L116.19 13.9164C115.978 14.8097 115.758 15.7713 115.531 16.8009C115.319 17.8154 115.122 18.7997 114.941 19.7536C114.759 20.7076 114.615 21.5555 114.509 22.2975C114.888 22.2672 115.289 22.252 115.713 22.252C116.152 22.2369 116.538 22.2293 116.871 22.2293C116.887 22.5776 116.917 22.9486 116.962 23.3423C117.008 23.7208 117.053 24.0539 117.099 24.3416C117.159 24.6142 117.189 24.7656 117.189 24.7959C117.129 24.7959 117.068 24.7959 117.008 24.7959C116.962 24.7959 116.909 24.7883 116.849 24.7732H116.485C115.895 24.7732 115.236 24.8035 114.509 24.864C113.798 24.9095 113.086 24.9927 112.374 25.1139C111.678 25.2199 111.049 25.3637 110.489 25.5454ZM122.135 26.0451C121.575 26.0451 121.038 25.924 120.523 25.6817C120.023 25.4394 119.591 25.0685 119.228 24.5688C118.849 24.0842 118.554 23.471 118.342 22.729C118.13 21.9871 118.024 21.1164 118.024 20.117C118.024 18.1637 118.304 16.4602 118.865 15.0066C119.425 13.553 120.137 12.3416 121 11.3725C121.848 10.4034 122.756 9.68418 123.725 9.21478C124.709 8.74538 125.626 8.51067 126.473 8.51067C127.291 8.51067 127.957 8.69238 128.472 9.05579C128.987 9.40405 129.366 9.87345 129.608 10.464C129.85 11.0545 129.971 11.7132 129.971 12.44L126.86 13.0306C126.723 12.4249 126.542 11.9933 126.315 11.7359C126.087 11.4785 125.83 11.3498 125.542 11.3498C125.209 11.3498 124.861 11.5315 124.497 11.8949C124.149 12.2583 123.801 12.7504 123.453 13.3713C123.12 13.9769 122.817 14.6583 122.544 15.4154C122.272 16.1725 122.044 16.9523 121.863 17.7549C121.696 18.5574 121.598 19.3145 121.567 20.0262C121.567 20.965 121.704 21.6388 121.976 22.0476C122.264 22.4413 122.627 22.6382 123.067 22.6382C123.491 22.6382 123.907 22.5019 124.316 22.2293C124.74 21.9568 125.088 21.5934 125.361 21.1391C125.648 20.6697 125.8 20.1473 125.815 19.5719L123.385 19.9353L123.816 17.6867L125.906 17.4142C126.481 17.3385 127.087 17.2476 127.723 17.1416C128.374 17.0356 128.942 16.9372 129.426 16.8463C129.32 18.3908 129.017 19.746 128.518 20.912C128.033 22.0628 127.427 23.0167 126.701 23.7738C125.974 24.5309 125.209 25.0987 124.407 25.4773C123.619 25.8558 122.862 26.0451 122.135 26.0451ZM128.518 25.4773C128.73 24.5991 128.942 23.6072 129.154 22.5019C129.366 21.3814 129.578 20.223 129.79 19.0268C130.002 17.8306 130.199 16.6798 130.381 15.5744C130.547 14.6053 130.706 13.6211 130.858 12.6217C131.024 11.6224 131.183 10.6154 131.335 9.6009L134.878 9.03307L133.856 15.0066C133.629 16.4148 133.424 17.6792 133.243 18.7997C133.076 19.9202 132.909 20.9801 132.743 21.9795C132.591 22.9789 132.432 24.0009 132.266 25.0457C131.978 25.0457 131.63 25.0685 131.221 25.1139C130.812 25.1442 130.403 25.1896 129.995 25.2502C129.586 25.2956 129.237 25.341 128.95 25.3864C128.677 25.4319 128.533 25.4621 128.518 25.4773ZM137.13 25.5454C136.176 25.5454 135.396 25.0987 134.79 24.2054C134.185 23.312 133.882 22.0855 133.882 20.5259C133.882 19.1025 134.079 17.7019 134.472 16.3239C134.866 14.9309 135.419 13.6817 136.13 12.5763C136.842 11.4709 137.682 10.5851 138.652 9.91888C139.636 9.23749 140.718 8.8968 141.9 8.8968C142.641 8.8968 143.277 9.18449 143.807 9.75989C144.337 10.3353 144.602 11.1075 144.602 12.0766V12.3492C144.602 12.4097 144.602 12.4627 144.602 12.5082C144.602 12.5536 144.595 12.6066 144.58 12.6672L141.604 13.4621C141.423 13.0836 141.211 12.8943 140.968 12.8943C140.605 12.8943 140.219 13.1896 139.81 13.7801C139.416 14.3706 139.038 15.0747 138.674 15.8924C138.432 16.4375 138.212 16.9978 138.016 17.5732C137.834 18.1486 137.69 18.6861 137.584 19.1858C137.478 19.6855 137.425 20.0943 137.425 20.4123C137.425 20.8817 137.493 21.2224 137.629 21.4344C137.735 21.6312 137.902 21.7296 138.129 21.7296C138.356 21.7296 138.606 21.6236 138.879 21.4117C139.151 21.1845 139.401 20.9044 139.628 20.5713C139.871 20.2382 140.029 19.905 140.105 19.5719L142.694 20.6167C141.953 22.3126 141.067 23.5618 140.037 24.3643C139.023 25.1517 138.053 25.5454 137.13 25.5454ZM146.512 25.5909C145.512 25.5909 144.695 25.2047 144.059 24.4325C143.423 23.6602 143.105 22.4943 143.105 20.9347C143.105 20.0716 143.211 19.1631 143.423 18.2091C143.635 17.2552 143.93 16.3164 144.309 15.3927C144.687 14.4691 145.126 13.6135 145.626 12.8261C146.428 11.5542 147.352 10.517 148.397 9.71446C149.442 8.91194 150.539 8.51067 151.69 8.51067C152.599 8.51067 153.295 8.74538 153.78 9.21478C154.28 9.66904 154.628 10.2596 154.825 10.9864C155.021 11.6981 155.12 12.44 155.12 13.2123C155.12 15.0142 154.84 16.6949 154.28 18.2546C153.734 19.799 153.023 21.1088 152.145 22.1839C151.266 23.2893 150.327 24.1372 149.328 24.7278C148.344 25.3032 147.405 25.5909 146.512 25.5909ZM147.738 21.8432C148.42 21.8432 149.018 21.6161 149.533 21.1618C150.062 20.7076 150.509 20.1322 150.873 19.4356C151.236 18.724 151.509 17.982 151.69 17.2098C151.872 16.4375 151.963 15.741 151.963 15.1202C151.963 14.8779 151.94 14.6205 151.895 14.3479C151.849 14.0602 151.751 13.8104 151.599 13.5984C151.448 13.3864 151.213 13.2804 150.895 13.2804C150.199 13.2804 149.57 13.5378 149.01 14.0526C148.45 14.5523 147.98 15.1883 147.602 15.9605C147.223 16.7479 146.943 17.5202 146.762 18.2773C146.58 19.0344 146.489 19.7233 146.489 20.3441C146.489 20.6621 146.603 20.9953 146.83 21.3435C147.057 21.6766 147.36 21.8432 147.738 21.8432Z" fill="white"/>
</svg>
