<svg width="219" height="37" viewBox="0 0 219 37" fill="none" xmlns="http://www.w3.org/2000/svg">
<path d="M0.82125 35.308C1.75992 32.4493 2.65592 29.6653 3.50925 26.956C3.87192 25.8467 4.24525 24.6627 4.62925 23.404C5.01325 22.1453 5.39725 20.8867 5.78125 19.628C6.16525 18.348 6.52792 17.1213 6.86925 15.948C7.21058 14.7747 7.49858 13.7293 7.73325 12.812C8.90658 12.812 10.0159 12.748 11.0613 12.62C11.5946 12.556 12.1386 12.492 12.6933 12.428C13.2693 12.364 13.8559 12.3107 14.4533 12.268L14.2613 13.836C14.2186 14.1347 14.1759 14.444 14.1333 14.764C14.0906 15.0627 14.0479 15.372 14.0053 15.692C13.9626 16.012 13.9093 16.3427 13.8453 16.684C13.7813 17.004 13.7279 17.3347 13.6853 17.676C13.5999 18.3373 13.4719 19.2653 13.3013 20.46C13.1306 21.6333 12.9279 22.9133 12.6933 24.3H13.1093C13.7279 22.6787 14.2399 21.3347 14.6453 20.268C15.0506 19.18 15.3813 18.2947 15.6373 17.612C15.9999 16.6093 16.3946 15.596 16.8213 14.572C17.2479 13.548 17.5999 12.7587 17.8773 12.204C18.3893 12.1613 18.9973 12.0973 19.7013 12.012C20.4266 11.9053 21.1519 11.788 21.8773 11.66C22.6239 11.532 23.2639 11.4253 23.7973 11.34C23.4986 13.132 23.2213 14.9453 22.9653 16.78C22.7306 18.5933 22.5173 20.332 22.3253 21.996C22.1546 23.6387 22.0053 25.1213 21.8773 26.444C21.7493 27.7667 21.6319 29.0787 21.5253 30.38C21.4186 31.66 21.3119 32.9293 21.2053 34.188L15.6373 35.18C15.6373 35.1373 15.6693 34.6573 15.7333 33.74C15.7973 32.8227 15.9039 31.6813 16.0533 30.316C16.2026 28.9507 16.3519 27.66 16.5013 26.444C16.6506 25.2067 16.7999 24.1933 16.9493 23.404H16.6613C16.1279 25.0253 15.4773 26.796 14.7093 28.716C13.9626 30.636 13.2266 32.7587 12.5013 35.084C11.7546 35.1053 11.1146 35.1373 10.5813 35.18C10.0479 35.2013 9.42925 35.2333 8.72525 35.276L9.74925 23.404H9.26925C9.24792 23.6387 9.15192 24.0973 8.98125 24.78C8.81058 25.4413 8.60792 26.2093 8.37325 27.084C8.13858 27.9373 7.89325 28.7907 7.63725 29.644C6.67725 32.9933 6.16525 34.764 6.10125 34.956L0.82125 35.308ZM26.8738 36.076C26.2338 36.076 25.5831 35.9373 24.9218 35.66C24.2604 35.3827 23.7058 34.956 23.2578 34.38C22.8098 33.804 22.5858 33.068 22.5858 32.172V31.916C22.5858 31.8093 22.5964 31.724 22.6178 31.66C22.6818 31.1053 22.7671 30.38 22.8738 29.484C23.0018 28.588 23.1511 27.6173 23.3218 26.572C23.4924 25.5053 23.6631 24.4493 23.8338 23.404C24.0258 22.3587 24.1964 21.4093 24.3458 20.556C24.6658 18.8493 24.9218 17.4733 25.1138 16.428C25.3058 15.3827 25.4551 14.5827 25.5618 14.028C25.6898 13.452 25.7858 13.0253 25.8498 12.748C26.0844 12.7267 26.3298 12.7053 26.5858 12.684C26.8631 12.6413 27.1511 12.6093 27.4498 12.588C27.7484 12.5453 28.0364 12.5133 28.3138 12.492C28.6124 12.4707 28.9004 12.4493 29.1778 12.428L31.1298 12.236C30.8524 13.5373 30.5858 14.7747 30.3298 15.948C30.0951 17.1 29.8711 18.1987 29.6578 19.244L28.1858 26.316C28.0578 26.8493 27.9618 27.2973 27.8978 27.66C27.8124 28.0013 27.7164 28.4387 27.6098 28.972C27.5244 29.484 27.4818 29.9533 27.4818 30.38C27.4818 30.7213 27.5671 31.0093 27.7378 31.244C27.9084 31.4573 28.1218 31.564 28.3778 31.564C28.7404 31.564 29.0391 31.4253 29.2738 31.148C29.5084 30.8707 29.7004 30.5293 29.8498 30.124C29.9991 29.7187 30.1164 29.3133 30.2018 28.908C30.2871 28.4813 30.3618 28.14 30.4258 27.884C30.6391 26.9027 30.8311 25.9533 31.0017 25.036C31.1938 24.0973 31.3858 23.1053 31.5778 22.06C31.7911 21.0147 32.0258 19.8093 32.2818 18.444C32.4524 17.5053 32.6231 16.556 32.7938 15.596C32.9858 14.6147 33.1671 13.6227 33.3378 12.62L38.2018 12.3C38.2018 12.3 38.1058 12.812 37.9138 13.836C37.7218 14.86 37.4444 16.4067 37.0818 18.476C36.9324 19.2653 36.7618 20.1507 36.5698 21.132C36.3991 22.1133 36.2071 23.1053 35.9938 24.108C35.7804 25.1107 35.5778 26.06 35.3858 26.956C35.2151 27.852 35.0551 28.62 34.9058 29.26C34.4791 31.0093 33.8178 32.3853 32.9218 33.388C32.0258 34.3693 31.0338 35.0627 29.9458 35.468C28.8791 35.8733 27.8551 36.076 26.8738 36.076ZM35.16 35.66C35.8 32.588 36.408 29.612 36.984 26.732C37.4533 24.0227 37.912 21.42 38.36 18.924C38.808 16.428 39.128 14.1347 39.32 12.044C39.4693 12.0653 39.5973 12.076 39.704 12.076C39.832 12.076 39.9387 12.076 40.024 12.076H40.696C41.2507 12.076 41.8693 12.0653 42.552 12.044C43.2347 12.0013 43.864 11.9693 44.44 11.948C44.5893 12.6947 44.728 13.4307 44.856 14.156C45.0053 14.8813 45.1333 15.5853 45.24 16.268C45.3467 16.8653 45.464 17.484 45.592 18.124C45.72 18.7427 45.848 19.372 45.976 20.012C46.0827 20.652 46.1893 21.2493 46.296 21.804C46.424 22.3373 46.5307 22.828 46.616 23.276C46.872 22.0173 47.1067 20.78 47.32 19.564C47.5547 18.348 47.7787 17.2493 47.992 16.268L48.92 11.98L52.824 11.5C52.4613 13.1213 52.12 14.7107 51.8 16.268C51.48 17.8253 51.1813 19.3293 50.904 20.78C50.3707 23.3827 49.9013 25.836 49.496 28.14C49.0907 30.444 48.7813 32.4493 48.568 34.156C48.8027 34.156 48.76 34.188 48.44 34.252C48.1413 34.2947 47.6933 34.3693 47.096 34.476C46.4987 34.5613 45.8587 34.6787 45.176 34.828C44.4933 34.9773 43.8853 35.1587 43.352 35.372C43.288 34.5187 43.224 33.6867 43.16 32.876C43.096 32.0653 43.0213 31.276 42.936 30.508C42.808 29.1427 42.6587 27.788 42.488 26.444C42.3173 25.1 42.1467 24.0333 41.976 23.244C41.8267 24.1827 41.6453 25.26 41.432 26.476C41.2187 27.6707 40.984 28.876 40.728 30.092L39.832 34.572L35.16 35.66ZM51.3888 35.66C51.0901 35.66 50.7914 35.6387 50.4928 35.596C50.1941 35.5747 49.8954 35.5427 49.5968 35.5L51.2928 26.892C51.5061 25.7187 51.7301 24.4813 51.9648 23.18C52.2208 21.8573 52.4661 20.556 52.7008 19.276C52.9354 17.9747 53.1381 16.7693 53.3088 15.66C53.5008 14.5507 53.6501 13.612 53.7568 12.844C54.6741 12.6733 55.6021 12.5133 56.5408 12.364C57.4794 12.2147 58.4394 12.14 59.4208 12.14C60.9994 12.14 62.2474 12.4707 63.1648 13.132C64.0821 13.772 64.7434 14.6253 65.1488 15.692C65.5541 16.7373 65.7568 17.8893 65.7568 19.148C65.7568 20.2787 65.5968 21.4733 65.2768 22.732C64.9568 23.9693 64.4981 25.2067 63.9008 26.444C63.3248 27.66 62.6314 28.812 61.8208 29.9C60.5621 31.5853 59.0261 32.972 57.2128 34.06C55.4208 35.1267 53.4794 35.66 51.3888 35.66ZM55.1968 31.628C55.9434 31.1373 56.6474 30.3907 57.3088 29.388C57.9914 28.3853 58.6314 27.18 59.2288 25.772C59.7621 24.4707 60.1781 23.244 60.4768 22.092C60.7754 20.9187 60.9248 19.948 60.9248 19.18C60.9248 18.3907 60.7008 17.772 60.2528 17.324C59.8261 16.876 59.1434 16.652 58.2048 16.652C57.8634 18.4867 57.5114 20.1827 57.1488 21.74C56.8074 23.2973 56.4661 24.8653 56.1248 26.444C55.8048 28.0227 55.4954 29.7507 55.1968 31.628ZM69.3858 35.628C67.9778 35.628 66.8258 35.084 65.9298 33.996C65.0338 32.908 64.5858 31.2653 64.5858 29.068C64.5858 27.852 64.7351 26.572 65.0338 25.228C65.3324 23.884 65.7484 22.5613 66.2818 21.26C66.8151 19.9587 67.4338 18.7533 68.1378 17.644C69.2684 15.852 70.5698 14.3907 72.0417 13.26C73.5138 12.1293 75.0604 11.564 76.6818 11.564C77.9618 11.564 78.9431 11.8947 79.6258 12.556C80.3298 13.196 80.8204 14.028 81.0978 15.052C81.3751 16.0547 81.5138 17.1 81.5138 18.188C81.5138 20.7267 81.1191 23.0947 80.3298 25.292C79.5618 27.468 78.5591 29.3133 77.3218 30.828C76.0844 32.3853 74.7618 33.58 73.3538 34.412C71.9671 35.2227 70.6444 35.628 69.3858 35.628ZM71.1138 30.348C72.0738 30.348 72.9164 30.028 73.6418 29.388C74.3884 28.748 75.0178 27.9373 75.5298 26.956C76.0418 25.9533 76.4258 24.908 76.6818 23.82C76.9378 22.732 77.0658 21.7507 77.0658 20.876C77.0658 20.5347 77.0338 20.172 76.9698 19.788C76.9058 19.3827 76.7671 19.0307 76.5538 18.732C76.3404 18.4333 76.0098 18.284 75.5618 18.284C74.5804 18.284 73.6951 18.6467 72.9058 19.372C72.1164 20.076 71.4551 20.972 70.9218 22.06C70.3884 23.1693 69.9938 24.2573 69.7378 25.324C69.4818 26.3907 69.3538 27.3613 69.3538 28.236C69.3538 28.684 69.5138 29.1533 69.8338 29.644C70.1538 30.1133 70.5804 30.348 71.1138 30.348ZM85.817 35.66C86.1157 34.1453 86.4037 32.6627 86.681 31.212C86.9797 29.74 87.2677 28.2893 87.545 26.86C87.8437 25.196 88.1423 23.5107 88.441 21.804C88.761 20.0973 89.049 18.4333 89.305 16.812C89.5823 15.1907 89.7957 13.6867 89.945 12.3C90.2863 12.2787 90.617 12.2573 90.937 12.236C91.257 12.2147 91.5663 12.1933 91.865 12.172C92.1423 12.1507 92.4197 12.1293 92.697 12.108C92.9957 12.0867 93.2837 12.0653 93.561 12.044L95.097 11.948C95.2463 12.7587 95.3743 13.5587 95.481 14.348C95.609 15.1373 95.7263 15.9053 95.833 16.652C95.9183 17.164 96.0143 17.7613 96.121 18.444C96.249 19.1267 96.3663 19.8307 96.473 20.556C96.601 21.26 96.7183 21.9213 96.825 22.54C96.953 23.1587 97.0597 23.66 97.145 24.044C97.3583 22.9133 97.529 21.9853 97.657 21.26C97.8063 20.5133 97.945 19.7987 98.073 19.116C98.2223 18.412 98.393 17.5907 98.585 16.652L99.577 11.98L103.481 11.5C103.118 13.1 102.777 14.6573 102.457 16.172C102.137 17.6867 101.838 19.1587 101.561 20.588C101.028 23.1693 100.558 25.5907 100.153 27.852C99.7477 30.092 99.4383 32.0547 99.225 33.74L94.009 34.956L93.529 30.028C93.4863 29.5373 93.4223 28.9507 93.337 28.268C93.2517 27.564 93.1663 26.8493 93.081 26.124C92.9957 25.3773 92.9103 24.7053 92.825 24.108C92.7397 23.4893 92.6757 23.0307 92.633 22.732C92.4197 23.9907 92.217 25.2173 92.025 26.412C91.833 27.5853 91.6197 28.7267 91.385 29.836C91.2357 30.5827 91.0863 31.3613 90.937 32.172C90.809 32.9613 90.6597 33.7613 90.489 34.572L85.817 35.66ZM105.917 35.628C104.509 35.628 103.357 35.084 102.461 33.996C101.565 32.908 101.117 31.2653 101.117 29.068C101.117 27.852 101.266 26.572 101.565 25.228C101.864 23.884 102.28 22.5613 102.813 21.26C103.346 19.9587 103.965 18.7533 104.669 17.644C105.8 15.852 107.101 14.3907 108.573 13.26C110.045 12.1293 111.592 11.564 113.213 11.564C114.493 11.564 115.474 11.8947 116.157 12.556C116.861 13.196 117.352 14.028 117.629 15.052C117.906 16.0547 118.045 17.1 118.045 18.188C118.045 20.7267 117.65 23.0947 116.861 25.292C116.093 27.468 115.09 29.3133 113.853 30.828C112.616 32.3853 111.293 33.58 109.885 34.412C108.498 35.2227 107.176 35.628 105.917 35.628ZM107.645 30.348C108.605 30.348 109.448 30.028 110.173 29.388C110.92 28.748 111.549 27.9373 112.061 26.956C112.573 25.9533 112.957 24.908 113.213 23.82C113.469 22.732 113.597 21.7507 113.597 20.876C113.597 20.5347 113.565 20.172 113.501 19.788C113.437 19.3827 113.298 19.0307 113.085 18.732C112.872 18.4333 112.541 18.284 112.093 18.284C111.112 18.284 110.226 18.6467 109.437 19.372C108.648 20.076 107.986 20.972 107.453 22.06C106.92 23.1693 106.525 24.2573 106.269 25.324C106.013 26.3907 105.885 27.3613 105.885 28.236C105.885 28.684 106.045 29.1533 106.365 29.644C106.685 30.1133 107.112 30.348 107.645 30.348ZM121.378 35.564C120.525 35.564 119.672 35.34 118.818 34.892C117.965 34.4227 117.144 33.6867 116.354 32.684L118.722 28.044C118.957 28.4493 119.298 28.8333 119.746 29.196C120.216 29.5587 120.706 29.8467 121.218 30.06C121.73 30.2733 122.168 30.38 122.53 30.38C123.085 30.38 123.608 30.2093 124.098 29.868C124.61 29.5267 124.866 29.068 124.866 28.492C124.866 27.7453 124.525 27.0627 123.842 26.444C123.16 25.8253 122.392 25.2173 121.538 24.62C120.706 24.0227 119.938 23.3507 119.234 22.604C118.552 21.836 118.21 20.9613 118.21 19.98C118.21 18.8707 118.53 17.8467 119.17 16.908C119.81 15.948 120.642 15.116 121.666 14.412C122.69 13.6867 123.778 13.132 124.93 12.748C126.104 12.3427 127.213 12.14 128.258 12.14C129.005 12.14 129.698 12.268 130.338 12.524C130.978 12.7587 131.49 13.1533 131.874 13.708C132.258 14.2627 132.45 15.0093 132.45 15.948C132.45 16.0973 132.44 16.2467 132.418 16.396C132.418 16.5453 132.408 16.6947 132.386 16.844C132.365 16.9933 132.333 17.1533 132.29 17.324C132.269 17.4733 132.248 17.6333 132.226 17.804L127.586 19.148C127.629 18.9773 127.661 18.8067 127.682 18.636C127.725 18.4653 127.746 18.2947 127.746 18.124C127.746 17.484 127.629 17.0253 127.394 16.748C127.181 16.4493 126.893 16.3 126.53 16.3C126.338 16.3 126.061 16.4067 125.698 16.62C125.336 16.812 125.005 17.0893 124.706 17.452C124.429 17.7933 124.29 18.1773 124.29 18.604C124.29 19.308 124.578 19.8947 125.154 20.364C125.752 20.812 126.434 21.2707 127.202 21.74C127.565 21.9533 127.97 22.2947 128.418 22.764C128.866 23.212 129.25 23.8307 129.57 24.62C129.912 25.388 130.082 26.38 130.082 27.596C130.082 29.1747 129.688 30.5613 128.898 31.756C128.13 32.9507 127.085 33.8893 125.762 34.572C124.44 35.2333 122.978 35.564 121.378 35.564ZM132.536 35.532C132.771 34.3587 133.006 33.196 133.24 32.044C133.496 30.8707 133.731 29.7187 133.944 28.588C134.755 24.5347 135.416 20.652 135.928 16.94C135.694 16.8973 135.448 16.876 135.192 16.876C134.936 16.8547 134.691 16.8547 134.456 16.876C133.944 16.9187 133.443 16.8547 132.952 16.684C132.974 16.5133 132.984 16.332 132.984 16.14C132.984 15.9267 132.984 15.7133 132.984 15.5C132.984 15.2653 132.984 15.0413 132.984 14.828C132.984 14.5933 132.995 14.3693 133.016 14.156C133.038 13.9213 133.048 13.676 133.048 13.42C133.048 13.1427 133.059 12.8653 133.08 12.588C133.635 12.6307 134.19 12.6627 134.744 12.684C135.299 12.7053 135.854 12.716 136.408 12.716C137.987 12.716 139.491 12.6627 140.92 12.556C142.371 12.4493 143.704 12.3213 144.92 12.172L144.568 13.9L144.28 15.404C144.174 15.9587 144.078 16.396 143.992 16.716C143.758 16.78 143.523 16.8333 143.288 16.876C143.054 16.9187 142.819 16.9507 142.584 16.972C142.35 16.9933 142.104 17.0253 141.848 17.068C141.614 17.1107 141.379 17.1533 141.144 17.196C140.824 18.7747 140.558 20.14 140.344 21.292C140.152 22.444 139.971 23.5533 139.8 24.62C139.651 25.6653 139.47 26.8173 139.256 28.076C138.894 30.2307 138.574 32.4173 138.296 34.636L132.536 35.532ZM149.538 35.436C149.581 35.0733 149.623 34.7213 149.666 34.38C149.709 34.0387 149.751 33.6973 149.794 33.356L149.986 31.564C150.007 31.2653 150.029 30.988 150.05 30.732C150.071 30.476 150.093 30.2413 150.114 30.028H147.33L146.05 34.636C145.581 34.7 145.026 34.7747 144.386 34.86C143.746 34.924 143.149 34.988 142.594 35.052C142.253 35.0947 141.911 35.1373 141.57 35.18C141.25 35.2227 140.919 35.2653 140.578 35.308L143.106 26.924C143.405 25.9213 143.746 24.78 144.13 23.5C144.514 22.22 144.898 20.908 145.282 19.564C145.687 18.22 146.061 16.9613 146.402 15.788C146.765 14.5933 147.053 13.5907 147.266 12.78C148.717 12.6733 150.189 12.5453 151.682 12.396C153.197 12.2467 154.669 12.044 156.098 11.788C155.991 12.9827 155.885 14.3373 155.778 15.852C155.693 17.3453 155.607 18.892 155.522 20.492C155.458 22.092 155.383 23.6707 155.298 25.228C155.255 26.7 155.202 28.2253 155.138 29.804C155.074 31.3613 155.01 32.9613 154.946 34.604C154.626 34.6467 154.306 34.6893 153.986 34.732C153.666 34.7747 153.346 34.8173 153.026 34.86C152.493 34.9453 151.906 35.0413 151.266 35.148C150.626 35.2547 150.05 35.3507 149.538 35.436ZM148.098 26.828C148.226 26.828 148.461 26.8173 148.802 26.796C149.165 26.7747 149.506 26.7533 149.826 26.732C150.146 26.7107 150.338 26.7 150.402 26.7C150.402 26.4227 150.445 25.8573 150.53 25.004C150.615 24.1507 150.701 23.2547 150.786 22.316C150.829 21.7613 150.871 21.196 150.914 20.62C150.978 20.0227 151.042 19.4147 151.106 18.796L151.298 16.012L150.818 16.044L150.082 18.796L148.098 26.828ZM147.33 11.02C147.309 10.9133 147.298 10.8067 147.298 10.7C147.298 10.572 147.298 10.4653 147.298 10.38V9.804C147.298 9.63333 147.298 9.46266 147.298 9.292C147.298 9.1 147.309 8.91866 147.33 8.748V7.66C148.055 6.91333 148.759 6.22 149.442 5.58C150.125 4.91867 150.786 4.3 151.426 3.724C152.066 3.148 152.685 2.56133 153.282 1.964C153.879 1.36666 154.455 0.76933 155.01 0.171997C155.117 1.62267 155.181 2.956 155.202 4.172C155.202 4.79067 155.223 5.42 155.266 6.06C155.309 6.67867 155.373 7.31867 155.458 7.98C154.839 8.236 154.189 8.492 153.506 8.748C152.823 9.004 152.119 9.26 151.394 9.516C150.669 9.79333 149.965 10.06 149.282 10.316C148.599 10.5507 147.949 10.7853 147.33 11.02ZM155.478 35.564C155.712 33.8787 155.958 32.1827 156.214 30.476C156.491 28.7693 156.768 27.1267 157.046 25.548C157.344 23.948 157.622 22.508 157.878 21.228C158.155 19.8413 158.432 18.4333 158.71 17.004C158.987 15.5747 159.275 14.1347 159.574 12.684L165.174 11.948L163.51 19.18C163.211 20.4387 162.902 21.7933 162.582 23.244C162.283 24.6733 162.006 26.06 161.75 27.404C161.494 28.748 161.291 29.9427 161.142 30.988C161.675 30.9453 162.24 30.924 162.838 30.924C163.456 30.9027 164 30.892 164.47 30.892C164.491 31.3827 164.534 31.9053 164.598 32.46C164.662 32.9933 164.726 33.4627 164.79 33.868C164.875 34.252 164.918 34.4653 164.918 34.508C164.832 34.508 164.747 34.508 164.662 34.508C164.598 34.508 164.523 34.4973 164.438 34.476H163.926C163.094 34.476 162.166 34.5187 161.142 34.604C160.139 34.668 159.136 34.7853 158.134 34.956C157.152 35.1053 156.267 35.308 155.478 35.564ZM171.886 36.268C171.097 36.268 170.339 36.0973 169.614 35.756C168.91 35.4147 168.302 34.892 167.79 34.188C167.257 33.5053 166.841 32.6413 166.542 31.596C166.243 30.5507 166.094 29.324 166.094 27.916C166.094 25.164 166.489 22.764 167.278 20.716C168.067 18.668 169.07 16.9613 170.286 15.596C171.481 14.2307 172.761 13.2173 174.126 12.556C175.513 11.8947 176.803 11.564 177.998 11.564C179.15 11.564 180.089 11.82 180.814 12.332C181.539 12.8227 182.073 13.484 182.414 14.316C182.755 15.148 182.926 16.076 182.926 17.1L178.542 17.932C178.35 17.0787 178.094 16.4707 177.774 16.108C177.454 15.7453 177.091 15.564 176.686 15.564C176.217 15.564 175.726 15.82 175.214 16.332C174.723 16.844 174.233 17.5373 173.742 18.412C173.273 19.2653 172.846 20.2253 172.462 21.292C172.078 22.3587 171.758 23.4573 171.502 24.588C171.267 25.7187 171.129 26.7853 171.086 27.788C171.086 29.1107 171.278 30.06 171.662 30.636C172.067 31.1907 172.579 31.468 173.198 31.468C173.795 31.468 174.382 31.276 174.958 30.892C175.555 30.508 176.046 29.996 176.43 29.356C176.835 28.6947 177.049 27.9587 177.07 27.148L173.646 27.66L174.254 24.492L177.198 24.108C178.009 24.0013 178.862 23.8733 179.758 23.724C180.675 23.5747 181.475 23.436 182.158 23.308C182.009 25.484 181.582 27.3933 180.878 29.036C180.195 30.6573 179.342 32.0013 178.318 33.068C177.294 34.1347 176.217 34.9347 175.086 35.468C173.977 36.0013 172.91 36.268 171.886 36.268ZM180.879 35.468C181.177 34.2307 181.476 32.8333 181.775 31.276C182.073 29.6973 182.372 28.0653 182.671 26.38C182.969 24.6947 183.247 23.0733 183.503 21.516C183.737 20.1507 183.961 18.764 184.175 17.356C184.409 15.948 184.633 14.5293 184.847 13.1L189.839 12.3L188.399 20.716C188.079 22.7 187.791 24.4813 187.535 26.06C187.3 27.6387 187.065 29.132 186.831 30.54C186.617 31.948 186.393 33.388 186.159 34.86C185.753 34.86 185.263 34.892 184.687 34.956C184.111 34.9987 183.535 35.0627 182.959 35.148C182.383 35.212 181.892 35.276 181.487 35.34C181.103 35.404 180.9 35.4467 180.879 35.468ZM193.012 35.564C191.668 35.564 190.569 34.9347 189.716 33.676C188.862 32.4173 188.436 30.6893 188.436 28.492C188.436 26.4867 188.713 24.5133 189.268 22.572C189.822 20.6093 190.601 18.8493 191.604 17.292C192.606 15.7347 193.79 14.4867 195.156 13.548C196.542 12.588 198.068 12.108 199.732 12.108C200.777 12.108 201.673 12.5133 202.42 13.324C203.166 14.1347 203.54 15.2227 203.54 16.588V16.972C203.54 17.0573 203.54 17.132 203.54 17.196C203.54 17.26 203.529 17.3347 203.508 17.42L199.316 18.54C199.06 18.0067 198.761 17.74 198.42 17.74C197.908 17.74 197.364 18.156 196.788 18.988C196.233 19.82 195.7 20.812 195.188 21.964C194.846 22.732 194.537 23.5213 194.26 24.332C194.004 25.1427 193.801 25.9 193.652 26.604C193.502 27.308 193.428 27.884 193.428 28.332C193.428 28.9933 193.524 29.4733 193.716 29.772C193.865 30.0493 194.1 30.188 194.42 30.188C194.74 30.188 195.092 30.0387 195.476 29.74C195.86 29.42 196.212 29.0253 196.532 28.556C196.873 28.0867 197.097 27.6173 197.204 27.148L200.852 28.62C199.806 31.0093 198.558 32.7693 197.108 33.9C195.678 35.0093 194.313 35.564 193.012 35.564ZM206.23 35.628C204.822 35.628 203.67 35.084 202.774 33.996C201.878 32.908 201.43 31.2653 201.43 29.068C201.43 27.852 201.579 26.572 201.878 25.228C202.176 23.884 202.592 22.5613 203.126 21.26C203.659 19.9587 204.278 18.7533 204.982 17.644C206.112 15.852 207.414 14.3907 208.885 13.26C210.358 12.1293 211.904 11.564 213.526 11.564C214.806 11.564 215.787 11.8947 216.47 12.556C217.174 13.196 217.664 14.028 217.942 15.052C218.219 16.0547 218.358 17.1 218.358 18.188C218.358 20.7267 217.963 23.0947 217.174 25.292C216.406 27.468 215.403 29.3133 214.166 30.828C212.928 32.3853 211.606 33.58 210.198 34.412C208.811 35.2227 207.488 35.628 206.23 35.628ZM207.958 30.348C208.918 30.348 209.76 30.028 210.486 29.388C211.232 28.748 211.862 27.9373 212.374 26.956C212.886 25.9533 213.27 24.908 213.526 23.82C213.782 22.732 213.91 21.7507 213.91 20.876C213.91 20.5347 213.878 20.172 213.814 19.788C213.75 19.3827 213.611 19.0307 213.398 18.732C213.184 18.4333 212.854 18.284 212.406 18.284C211.424 18.284 210.539 18.6467 209.75 19.372C208.96 20.076 208.299 20.972 207.766 22.06C207.232 23.1693 206.838 24.2573 206.582 25.324C206.326 26.3907 206.198 27.3613 206.198 28.236C206.198 28.684 206.358 29.1533 206.678 29.644C206.998 30.1133 207.424 30.348 207.958 30.348Z" fill="#2499C7"/>
</svg>
