<svg width="55" height="41" viewBox="0 0 55 41" fill="none" xmlns="http://www.w3.org/2000/svg">
<g filter="url(#filter0_dd_991_6967)">
<rect x="7.74767" y="3.96832" width="39.3053" height="25.3217" rx="4.53522" fill="white"/>
<rect x="7.65319" y="3.87384" width="39.4942" height="25.5106" rx="4.62971" stroke="#D6DCE5" stroke-width="0.188968"/>
<path d="M20.4606 13.3122C20.7228 12.9842 20.9008 12.5438 20.8539 12.0938C20.47 12.1129 20.0016 12.3471 19.7304 12.6753C19.4868 12.9564 19.2713 13.4152 19.3275 13.8464C19.7584 13.8838 20.1889 13.631 20.4606 13.3122Z" fill="#000008"/>
<path d="M20.849 13.9306C20.2232 13.8933 19.6911 14.2858 19.3923 14.2858C19.0933 14.2858 18.6356 13.9494 18.1407 13.9584C17.4965 13.9679 16.8987 14.3322 16.5718 14.9115C15.8994 16.0704 16.3943 17.7895 17.0482 18.7334C17.3658 19.2004 17.7484 19.7146 18.2527 19.6961C18.7291 19.6774 18.9159 19.3876 19.495 19.3876C20.0737 19.3876 20.2419 19.6961 20.7463 19.6868C21.2693 19.6774 21.5962 19.2196 21.9138 18.7521C22.2781 18.2198 22.4272 17.7058 22.4366 17.6776C22.4272 17.6682 21.428 17.285 21.4188 16.1356C21.4094 15.1733 22.2032 14.7156 22.2406 14.6872C21.7923 14.0241 21.0918 13.9494 20.849 13.9306Z" fill="#000008"/>
<path d="M26.2978 12.6282C27.6579 12.6282 28.605 13.5658 28.605 14.9308C28.605 16.3007 27.6384 17.2431 26.2637 17.2431H24.7578V19.6379H23.6697V12.6282L26.2978 12.6282ZM24.7578 16.3298H26.0062C26.9535 16.3298 27.4927 15.8198 27.4927 14.9357C27.4927 14.0516 26.9535 13.5464 26.0111 13.5464H24.7578V16.3298Z" fill="#000008"/>
<path d="M28.8893 18.1855C28.8893 17.2916 29.5742 16.7427 30.7888 16.6747L32.1877 16.5922V16.1987C32.1877 15.6303 31.8039 15.2903 31.1628 15.2903C30.5555 15.2903 30.1765 15.5817 30.0843 16.0384H29.0934C29.1517 15.1154 29.9385 14.4353 31.2016 14.4353C32.4403 14.4353 33.2321 15.0911 33.2321 16.1161V19.6379H32.2265V18.7975H32.2023C31.906 19.3659 31.2599 19.7254 30.5896 19.7254C29.5889 19.7254 28.8893 19.1036 28.8893 18.1855ZM32.1877 17.724V17.3209L30.9295 17.3985C30.3028 17.4423 29.9483 17.7192 29.9483 18.1564C29.9483 18.6032 30.3175 18.8947 30.881 18.8947C31.6144 18.8947 32.1877 18.3895 32.1877 17.724Z" fill="#000008"/>
<path d="M34.1814 21.5179V20.6678C34.259 20.6872 34.4338 20.6872 34.5214 20.6872C35.0071 20.6872 35.2694 20.4832 35.4297 19.9586C35.4297 19.9488 35.5221 19.6477 35.5221 19.6428L33.6762 14.5276H34.8128L36.105 18.6859H36.1243L37.4166 14.5276H38.5242L36.6101 19.9051C36.1731 21.1439 35.6678 21.5422 34.6089 21.5422C34.5214 21.5422 34.259 21.5324 34.1814 21.5179Z" fill="#000008"/>
</g>
<defs>
<filter id="filter0_dd_991_6967" x="3.33786e-06" y="5.48363e-06" width="54.8006" height="40.817" filterUnits="userSpaceOnUse" color-interpolation-filters="sRGB">
<feFlood flood-opacity="0" result="BackgroundImageFix"/>
<feColorMatrix in="SourceAlpha" type="matrix" values="0 0 0 0 0 0 0 0 0 0 0 0 0 0 0 0 0 0 127 0" result="hardAlpha"/>
<feOffset dy="0.377935"/>
<feGaussianBlur stdDeviation="1.88968"/>
<feColorMatrix type="matrix" values="0 0 0 0 0.717647 0 0 0 0 0.717647 0 0 0 0 0.717647 0 0 0 0.08 0"/>
<feBlend mode="normal" in2="BackgroundImageFix" result="effect1_dropShadow_991_6967"/>
<feColorMatrix in="SourceAlpha" type="matrix" values="0 0 0 0 0 0 0 0 0 0 0 0 0 0 0 0 0 0 127 0" result="hardAlpha"/>
<feOffset dy="3.77935"/>
<feGaussianBlur stdDeviation="3.77935"/>
<feColorMatrix type="matrix" values="0 0 0 0 0.717647 0 0 0 0 0.717647 0 0 0 0 0.717647 0 0 0 0.08 0"/>
<feBlend mode="normal" in2="effect1_dropShadow_991_6967" result="effect2_dropShadow_991_6967"/>
<feBlend mode="normal" in="SourceGraphic" in2="effect2_dropShadow_991_6967" result="shape"/>
</filter>
</defs>
</svg>
