<svg width="55" height="41" viewBox="0 0 55 41" fill="none" xmlns="http://www.w3.org/2000/svg">
<g filter="url(#filter0_dd_991_6969)">
<rect x="7.74767" y="3.96832" width="39.3053" height="25.3217" rx="4.53522" fill="white"/>
<rect x="7.65319" y="3.87384" width="39.4942" height="25.5106" rx="4.62971" stroke="#D6DCE5" stroke-width="0.188968"/>
<path d="M26.9872 19.3493H26.1031V12.4702H28.4468C29.0408 12.4702 29.5473 12.6682 29.9617 13.0642C30.3853 13.4602 30.5971 13.9436 30.5971 14.5146C30.5971 15.0993 30.3853 15.5828 29.9617 15.9742C29.5519 16.3656 29.0454 16.559 28.4468 16.559H26.9872V19.3493ZM26.9872 13.3174V15.7163H28.4652C28.8152 15.7163 29.1098 15.5966 29.3401 15.3618C29.5749 15.127 29.6946 14.8415 29.6946 14.5192C29.6946 14.2015 29.5749 13.9206 29.3401 13.6858C29.1098 13.4417 28.8198 13.322 28.4652 13.322H26.9872V13.3174Z" fill="#3C4043"/>
<path d="M32.9084 14.487C33.5622 14.487 34.0779 14.6619 34.4555 15.0119C34.8331 15.3618 35.0218 15.8407 35.0218 16.4485V19.3493H34.1792V18.6954H34.1424C33.7786 19.2341 33.2906 19.5012 32.6828 19.5012C32.1625 19.5012 31.7297 19.3493 31.3797 19.0408C31.0298 18.7323 30.8548 18.3501 30.8548 17.8896C30.8548 17.4016 31.039 17.0148 31.4074 16.7293C31.7757 16.4392 32.2684 16.2965 32.8808 16.2965C33.4057 16.2965 33.8385 16.3932 34.1746 16.5866V16.384C34.1746 16.0755 34.0549 15.8176 33.8109 15.6012C33.5668 15.3848 33.2814 15.2789 32.9544 15.2789C32.4618 15.2789 32.0704 15.4861 31.7849 15.9051L31.0068 15.4171C31.435 14.7955 32.0704 14.487 32.9084 14.487ZM31.7665 17.9035C31.7665 18.1337 31.8632 18.3271 32.0612 18.479C32.2546 18.631 32.4848 18.7092 32.7472 18.7092C33.1202 18.7092 33.4517 18.5711 33.7418 18.2948C34.0319 18.0186 34.1792 17.6963 34.1792 17.3233C33.903 17.1069 33.5208 16.9964 33.0281 16.9964C32.669 16.9964 32.3697 17.0839 32.1303 17.2542C31.8862 17.4338 31.7665 17.6502 31.7665 17.9035Z" fill="#3C4043"/>
<path d="M39.8289 14.6389L36.8821 21.4167H35.9704L37.0663 19.0454L35.1232 14.6389H36.0855L37.4853 18.0186H37.5037L38.8666 14.6389H39.8289Z" fill="#3C4043"/>
<path d="M23.4707 16.0018C23.4707 15.7136 23.4449 15.4378 23.3971 15.1726H19.6914V16.692L21.8256 16.6925C21.739 17.1981 21.4604 17.629 21.0336 17.9164V18.9022H22.304C23.0457 18.2156 23.4707 17.2008 23.4707 16.0018Z" fill="#4285F4"/>
<path d="M21.0341 17.9164C20.6804 18.1549 20.2251 18.2944 19.6923 18.2944C18.6632 18.2944 17.7902 17.601 17.4776 16.6663H16.1672V17.683C16.8164 18.9713 18.1508 19.8553 19.6923 19.8553C20.7578 19.8553 21.6529 19.5049 22.3044 18.9018L21.0341 17.9164Z" fill="#34A853"/>
<path d="M17.3542 15.912C17.3542 15.6496 17.3979 15.3959 17.4776 15.1574V14.1407H16.1671C15.8987 14.6734 15.7477 15.2748 15.7477 15.912C15.7477 16.5493 15.8992 17.1506 16.1671 17.6834L17.4776 16.6667C17.3979 16.4282 17.3542 16.1745 17.3542 15.912Z" fill="#FABB05"/>
<path d="M19.6923 13.5292C20.2739 13.5292 20.7946 13.7295 21.2058 14.1209L22.3316 12.996C21.6478 12.3592 20.7564 11.9683 19.6923 11.9683C18.1512 11.9683 16.8164 12.8524 16.1671 14.1407L17.4776 15.1574C17.7902 14.2227 18.6632 13.5292 19.6923 13.5292Z" fill="#E94235"/>
</g>
<defs>
<filter id="filter0_dd_991_6969" x="3.33786e-06" y="5.48363e-06" width="54.8006" height="40.817" filterUnits="userSpaceOnUse" color-interpolation-filters="sRGB">
<feFlood flood-opacity="0" result="BackgroundImageFix"/>
<feColorMatrix in="SourceAlpha" type="matrix" values="0 0 0 0 0 0 0 0 0 0 0 0 0 0 0 0 0 0 127 0" result="hardAlpha"/>
<feOffset dy="0.377935"/>
<feGaussianBlur stdDeviation="1.88968"/>
<feColorMatrix type="matrix" values="0 0 0 0 0.717647 0 0 0 0 0.717647 0 0 0 0 0.717647 0 0 0 0.08 0"/>
<feBlend mode="normal" in2="BackgroundImageFix" result="effect1_dropShadow_991_6969"/>
<feColorMatrix in="SourceAlpha" type="matrix" values="0 0 0 0 0 0 0 0 0 0 0 0 0 0 0 0 0 0 127 0" result="hardAlpha"/>
<feOffset dy="3.77935"/>
<feGaussianBlur stdDeviation="3.77935"/>
<feColorMatrix type="matrix" values="0 0 0 0 0.717647 0 0 0 0 0.717647 0 0 0 0 0.717647 0 0 0 0.08 0"/>
<feBlend mode="normal" in2="effect1_dropShadow_991_6969" result="effect2_dropShadow_991_6969"/>
<feBlend mode="normal" in="SourceGraphic" in2="effect2_dropShadow_991_6969" result="shape"/>
</filter>
</defs>
</svg>
