<svg width="55" height="41" viewBox="0 0 55 41" fill="none" xmlns="http://www.w3.org/2000/svg">
<g filter="url(#filter0_dd_991_6965)">
<rect x="7.74767" y="3.96832" width="39.3053" height="25.3217" rx="4.53522" fill="white"/>
<rect x="7.65319" y="3.87384" width="39.4942" height="25.5106" rx="4.62971" stroke="#D6DCE5" stroke-width="0.188968"/>
<path fill-rule="evenodd" clip-rule="evenodd" d="M16.346 12.945H14.0799C13.9248 12.945 13.7929 13.0577 13.7688 13.2107L12.8522 19.021C12.834 19.1357 12.9228 19.2391 13.0391 19.2391H14.121C14.276 19.2391 14.4079 19.1264 14.4321 18.973L14.6793 17.4059C14.7032 17.2525 14.8354 17.1399 14.9901 17.1399H15.7075C17.2002 17.1399 18.0617 16.4176 18.2868 14.9864C18.3882 14.3602 18.2911 13.8682 17.9978 13.5235C17.6758 13.1453 17.1044 12.945 16.346 12.945ZM16.6074 15.0672C16.4835 15.8802 15.8622 15.8802 15.2615 15.8802H14.9195L15.1594 14.3617C15.1737 14.27 15.2532 14.2024 15.346 14.2024H15.5027C15.9119 14.2024 16.298 14.2024 16.4975 14.4356C16.6163 14.5748 16.6528 14.7815 16.6074 15.0672ZM23.1199 15.0411H22.0347C21.9423 15.0411 21.8624 15.1087 21.8481 15.2006L21.8001 15.504L21.7242 15.394C21.4893 15.0531 20.9655 14.9391 20.4426 14.9391C19.2433 14.9391 18.2192 15.8473 18.0197 17.1212C17.916 17.7566 18.0634 18.3642 18.4239 18.788C18.7547 19.1776 19.2279 19.3399 19.7908 19.3399C20.757 19.3399 21.2929 18.7187 21.2929 18.7187L21.2444 19.0203C21.2262 19.1356 21.315 19.2389 21.4306 19.2389H22.4081C22.5636 19.2389 22.6947 19.1262 22.7192 18.9729L23.3058 15.2591C23.3243 15.1449 23.2359 15.0411 23.1199 15.0411ZM21.6072 17.153C21.5025 17.7728 21.0104 18.189 20.383 18.189C20.0679 18.189 19.8159 18.0879 19.6543 17.8964C19.4939 17.7063 19.4329 17.4355 19.4839 17.1341C19.5818 16.5194 20.0821 16.0898 20.7001 16.0898C21.0081 16.0898 21.2587 16.1921 21.4237 16.3853C21.589 16.5804 21.6546 16.8527 21.6072 17.153ZM27.8089 15.0409H28.8995C29.0522 15.0409 29.1413 15.2122 29.0545 15.3375L25.4275 20.5722C25.3688 20.657 25.272 20.7074 25.1687 20.7074H24.0795C23.9262 20.7074 23.8366 20.5348 23.9254 20.4092L25.0548 18.8153L23.8537 15.2907C23.8121 15.1682 23.9026 15.0409 24.0329 15.0409H25.1044C25.2437 15.0409 25.3665 15.1323 25.4067 15.2656L26.0441 17.3943L27.5482 15.1791C27.6071 15.0926 27.7049 15.0409 27.8089 15.0409Z" fill="#253B80"/>
<path fill-rule="evenodd" clip-rule="evenodd" d="M39.6327 19.0205L40.5628 13.104C40.577 13.0121 40.6566 12.9445 40.7491 12.9442H41.7961C41.9117 12.9442 42.0005 13.0479 41.9822 13.1625L41.0651 18.9725C41.0412 19.1258 40.9093 19.2385 40.754 19.2385H39.8189C39.7033 19.2385 39.6145 19.1352 39.6327 19.0205ZM32.5103 12.9445H30.2438C30.089 12.9445 29.9572 13.0572 29.9329 13.2102L29.0164 19.0205C28.9982 19.1352 29.087 19.2385 29.2027 19.2385H30.3657C30.4738 19.2385 30.5662 19.1597 30.5831 19.0524L30.8432 17.4054C30.8671 17.2519 30.9993 17.1394 31.154 17.1394H31.871C33.3641 17.1394 34.2254 16.4171 34.4506 14.9858C34.5523 14.3597 34.4546 13.8677 34.1614 13.523C33.8396 13.1448 33.2687 12.9445 32.5103 12.9445ZM32.7717 15.0666C32.6481 15.8797 32.0268 15.8797 31.4257 15.8797H31.0841L31.3243 14.3612C31.3386 14.2695 31.4174 14.2019 31.5105 14.2019H31.6672C32.0762 14.2019 32.4626 14.2019 32.6619 14.4351C32.7809 14.5743 32.8171 14.781 32.7717 15.0666ZM39.2836 15.0406H38.1992C38.1059 15.0406 38.0268 15.1082 38.0129 15.2L37.9649 15.5035L37.8887 15.3935C37.6537 15.0525 37.1302 14.9386 36.6074 14.9386C35.4081 14.9386 34.3842 15.8467 34.1847 17.1207C34.0814 17.7561 34.2281 18.3637 34.5886 18.7875C34.92 19.1771 35.3926 19.3394 35.9555 19.3394C36.9217 19.3394 37.4575 18.7182 37.4575 18.7182L37.4092 19.0197C37.3909 19.135 37.4797 19.2384 37.5961 19.2384H38.5732C38.7279 19.2384 38.8598 19.1257 38.884 18.9724L39.4708 15.2586C39.4888 15.1444 39.4 15.0406 39.2836 15.0406ZM37.7711 17.1524C37.6669 17.7723 37.1743 18.1884 36.5466 18.1884C36.2321 18.1884 35.9797 18.0874 35.818 17.8959C35.6576 17.7058 35.5973 17.435 35.6478 17.1336C35.746 16.5189 36.2458 16.0893 36.8637 16.0893C37.172 16.0893 37.4224 16.1916 37.5875 16.3848C37.7534 16.5799 37.819 16.8522 37.7711 17.1524Z" fill="#179BD7"/>
</g>
<defs>
<filter id="filter0_dd_991_6965" x="8.9407e-08" y="5.48363e-06" width="54.8006" height="40.817" filterUnits="userSpaceOnUse" color-interpolation-filters="sRGB">
<feFlood flood-opacity="0" result="BackgroundImageFix"/>
<feColorMatrix in="SourceAlpha" type="matrix" values="0 0 0 0 0 0 0 0 0 0 0 0 0 0 0 0 0 0 127 0" result="hardAlpha"/>
<feOffset dy="0.377935"/>
<feGaussianBlur stdDeviation="1.88968"/>
<feColorMatrix type="matrix" values="0 0 0 0 0.717647 0 0 0 0 0.717647 0 0 0 0 0.717647 0 0 0 0.08 0"/>
<feBlend mode="normal" in2="BackgroundImageFix" result="effect1_dropShadow_991_6965"/>
<feColorMatrix in="SourceAlpha" type="matrix" values="0 0 0 0 0 0 0 0 0 0 0 0 0 0 0 0 0 0 127 0" result="hardAlpha"/>
<feOffset dy="3.77935"/>
<feGaussianBlur stdDeviation="3.77935"/>
<feColorMatrix type="matrix" values="0 0 0 0 0.717647 0 0 0 0 0.717647 0 0 0 0 0.717647 0 0 0 0.08 0"/>
<feBlend mode="normal" in2="effect1_dropShadow_991_6965" result="effect2_dropShadow_991_6965"/>
<feBlend mode="normal" in="SourceGraphic" in2="effect2_dropShadow_991_6965" result="shape"/>
</filter>
</defs>
</svg>
