<svg width="21" height="19" viewBox="0 0 21 19" fill="none" xmlns="http://www.w3.org/2000/svg">
<path d="M1.5 8.25H6.5M4 10.75V5.75M13 11.25C16.7966 11.25 18.7305 12.5874 19.3093 15.2621C19.5429 16.3417 18.6046 17.25 17.5 17.25H8.5C7.39543 17.25 6.45709 16.3417 6.69071 15.2621C7.26953 12.5874 9.20338 11.25 13 11.25ZM13 7.25C14.6667 7.25 15.5 6.39286 15.5 4.25C15.5 2.10714 14.6667 1.25 13 1.25C11.3333 1.25 10.5 2.10714 10.5 4.25C10.5 6.39286 11.3333 7.25 13 7.25Z" stroke="black" stroke-width="2" stroke-linecap="round" stroke-linejoin="round"/>
</svg>
