<svg width="26" height="30" viewBox="0 0 26 30" fill="none" xmlns="http://www.w3.org/2000/svg">
<path d="M24.9844 24.763H21.2344C20.1298 24.763 19.2344 23.8676 19.2344 22.763V18.4716C19.2344 17.367 20.1298 16.4716 21.2344 16.4716H24.9844M24.9844 24.763V16.4716M24.9844 24.763C24.9844 27.0527 23.1283 28.9088 20.8387 28.9088H12.0469M1.98438 16.4716V22.763C1.98438 23.8676 2.87981 24.763 3.98438 24.763H5.73438C6.83894 24.763 7.73438 23.8676 7.73438 22.763V18.4716C7.73438 17.367 6.83894 16.4716 5.73437 16.4716H1.98438ZM1.98438 16.4716V9.27063C1.98438 4.85236 5.5661 1.27063 9.98438 1.27063H16.9844C21.4027 1.27063 24.9844 4.85235 24.9844 9.27063V16.4716" stroke="#F5F50C" stroke-width="2" stroke-linecap="round" stroke-linejoin="round"/>
</svg>
