<svg width="27" height="29" viewBox="0 0 27 29" fill="none" xmlns="http://www.w3.org/2000/svg">
<path d="M4.97222 4.74709H24.7823C25.5489 4.74709 26.0304 5.57421 25.6519 6.24085L21.5193 13.5191C21.164 14.1449 20.4998 14.5315 19.7801 14.5315H9.83333M9.83333 14.5315L7.30977 18.5951C6.89608 19.2612 7.37513 20.1227 8.15928 20.1227H23.7222M9.83333 14.5315L4.13487 3.06167C3.797 2.3816 3.10312 1.95154 2.34374 1.95154H1.5M9.83333 25.7138C9.83333 26.4857 9.21151 27.1115 8.44444 27.1115C7.67738 27.1115 7.05556 26.4857 7.05556 25.7138C7.05556 24.9418 7.67738 24.316 8.44444 24.316C9.21151 24.316 9.83333 24.9418 9.83333 25.7138ZM23.7222 25.7138C23.7222 26.4857 23.1004 27.1115 22.3333 27.1115C21.5663 27.1115 20.9444 26.4857 20.9444 25.7138C20.9444 24.9418 21.5663 24.316 22.3333 24.316C23.1004 24.316 23.7222 24.9418 23.7222 25.7138Z" stroke="#F5F50C" stroke-width="2" stroke-linecap="round" stroke-linejoin="round"/>
</svg>
