<svg width="22" height="22" viewBox="0 0 22 22" fill="none" xmlns="http://www.w3.org/2000/svg">
<path d="M4.11468 3.60864H19.2496C20.0235 3.60864 20.5041 4.44987 20.1111 5.1165L17.2228 10.0157C16.8632 10.6256 16.2079 11 15.4999 11H7.9275M7.9275 11L6.1983 13.6817C5.76922 14.3471 6.24694 15.2236 7.03873 15.2236H18.8213M7.9275 11L3.58402 2.57993C3.24089 1.91475 2.55505 1.49683 1.80658 1.49683H1.39124M7.9275 19.4472C7.9275 20.0304 7.43977 20.5032 6.83812 20.5032C6.23647 20.5032 5.74874 20.0304 5.74874 19.4472C5.74874 18.8641 6.23647 18.3913 6.83812 18.3913C7.43977 18.3913 7.9275 18.8641 7.9275 19.4472ZM18.8213 19.4472C18.8213 20.0304 18.3335 20.5032 17.7319 20.5032C17.1302 20.5032 16.6425 20.0304 16.6425 19.4472C16.6425 18.8641 17.1302 18.3913 17.7319 18.3913C18.3335 18.3913 18.8213 18.8641 18.8213 19.4472Z" stroke="white" stroke-width="2" stroke-linecap="round" stroke-linejoin="round"/>
</svg>
