<svg width="20" height="20" viewBox="0 0 20 20" fill="none" xmlns="http://www.w3.org/2000/svg">
<path d="M7.65227 2.56614C7.85562 1.65106 8.66724 1 9.60464 1H10.396C11.3334 1 12.145 1.65106 12.3483 2.56614L12.5513 3.47935C13.2124 3.73819 13.8245 4.09467 14.37 4.53105L15.2642 4.24961C16.1583 3.96818 17.128 4.34554 17.5967 5.15735L17.9923 5.84264C18.461 6.65445 18.303 7.68287 17.6122 8.31652L16.922 8.94961C16.9736 9.29223 17.0003 9.643 17.0003 10C17.0003 10.357 16.9736 10.7078 16.922 11.0504L17.6122 11.6835C18.303 12.3171 18.4611 13.3455 17.9924 14.1574L17.5967 14.8426C17.128 15.6545 16.1583 16.0318 15.2642 15.7504L14.37 15.4689C13.8245 15.9053 13.2124 16.2618 12.5513 16.5206L12.3483 17.4339C12.145 18.3489 11.3334 19 10.396 19H9.60464C8.66724 19 7.85562 18.3489 7.65227 17.4339L7.44933 16.5206C6.7882 16.2618 6.17604 15.9053 5.63058 15.4689L4.73639 15.7504C3.84223 16.0318 2.87258 15.6545 2.40388 14.8426L2.00823 14.1573C1.53953 13.3455 1.69755 12.3171 2.38836 11.6835L3.07858 11.0504C3.02702 10.7077 3.0003 10.357 3.0003 10C3.0003 9.643 3.02702 9.29225 3.07858 8.94962L2.38837 8.31652C1.69757 7.68288 1.53954 6.65446 2.00824 5.84265L2.4039 5.15735C2.8726 4.34554 3.84225 3.96818 4.7364 4.24962L5.63059 4.53106C6.17604 4.09467 6.7882 3.73819 7.44933 3.47935L7.65227 2.56614Z" stroke="white" stroke-width="2" stroke-linecap="round" stroke-linejoin="round"/>
<path d="M11.0003 10C11.0003 10.5523 10.5526 11 10.0003 11C9.44799 11 9.00027 10.5523 9.00027 10C9.00027 9.44772 9.44799 9 10.0003 9C10.5526 9 11.0003 9.44772 11.0003 10Z" stroke="white" stroke-width="2" stroke-linecap="round" stroke-linejoin="round"/>
</svg>
