<svg width="19" height="19" viewBox="0 0 19 19" fill="none" xmlns="http://www.w3.org/2000/svg">
<path d="M17.9845 9.01646C17.9845 4.80567 14.4028 1.39215 9.9845 1.39215M10.9844 5.32438C12.3901 5.66914 13.4967 6.72382 13.8585 8.06348M13.0512 12.1084C12.6933 12.5632 12.1345 12.8398 11.5962 12.6272C9.73218 11.8909 7.00361 9.29637 6.20911 7.51061C5.97628 6.98729 6.26089 6.43628 6.72686 6.10321C7.44762 5.58803 7.67785 4.62011 7.26626 3.83558L6.67328 2.70532C6.26411 1.92541 5.39291 1.50495 4.52775 1.66986L2.6099 2.03541C1.66671 2.21519 0.968338 3.04346 1.08806 3.99614C1.95358 10.8835 8.12557 16.7344 15.3633 17.5073C16.3042 17.6078 17.1235 16.9307 17.3179 16.0046L17.6613 14.3682C17.8509 13.4648 17.3976 12.5491 16.5643 12.152L15.3466 11.5717C14.5501 11.1922 13.5969 11.415 13.0512 12.1084Z" stroke="#F5F50C" stroke-width="2" stroke-linecap="round" stroke-linejoin="round"/>
</svg>
