<svg width="42" height="41" viewBox="0 0 42 41" fill="none" xmlns="http://www.w3.org/2000/svg">
<path d="M37.7514 17.1542H36.3753V17.0833H21.0003V23.9166H30.655C29.2465 27.8945 25.4616 30.75 21.0003 30.75C15.3398 30.75 10.7503 26.1605 10.7503 20.5C10.7503 14.8394 15.3398 10.25 21.0003 10.25C23.6132 10.25 25.9904 11.2357 27.8003 12.8458L32.6324 8.01375C29.5813 5.17023 25.5001 3.41663 21.0003 3.41663C11.5661 3.41663 3.91699 11.0657 3.91699 20.5C3.91699 29.9342 11.5661 37.5833 21.0003 37.5833C30.4346 37.5833 38.0837 29.9342 38.0837 20.5C38.0837 19.3545 37.9658 18.2364 37.7514 17.1542Z" fill="#FFC107"/>
<path d="M5.88574 12.5485L11.4985 16.6648C13.0172 12.9047 16.6952 10.25 20.9994 10.25C23.6123 10.25 25.9894 11.2357 27.7994 12.8458L32.6314 8.01375C29.5803 5.17023 25.4991 3.41663 20.9994 3.41663C14.4377 3.41663 8.7472 7.12115 5.88574 12.5485Z" fill="#FF3D00"/>
<path d="M20.9995 37.5836C25.4121 37.5836 29.4215 35.8949 32.453 33.1488L27.1657 28.6747C25.3929 30.0229 23.2267 30.752 20.9995 30.7503C16.5561 30.7503 12.7832 27.917 11.3619 23.9631L5.79102 28.2553C8.61831 33.7877 14.36 37.5836 20.9995 37.5836Z" fill="#4CAF50"/>
<path d="M37.7511 17.1543H36.375V17.0834H21V23.9167H30.6546C29.9809 25.8099 28.7672 27.4642 27.1637 28.6753L27.1662 28.6736L32.4535 33.1477C32.0794 33.4876 38.0833 29.0417 38.0833 20.5C38.0833 19.3546 37.9655 18.2365 37.7511 17.1543Z" fill="#1976D2"/>
</svg>
