<svg width="31" height="31" viewBox="0 0 31 31" fill="none" xmlns="http://www.w3.org/2000/svg">
<path d="M23.2344 8.01562H23.2484M8.46875 1.6875H22.5312C26.4145 1.6875 29.5625 4.8355 29.5625 8.71875V22.7812C29.5625 26.6645 26.4145 29.8125 22.5312 29.8125H8.46875C4.5855 29.8125 1.4375 26.6645 1.4375 22.7812V8.71875C1.4375 4.8355 4.5855 1.6875 8.46875 1.6875ZM21.125 14.8641C21.2985 16.0344 21.0986 17.2297 20.5537 18.2799C20.0088 19.3301 19.1466 20.1817 18.0898 20.7136C17.033 21.2455 15.8353 21.4307 14.6672 21.2427C13.4991 21.0548 12.42 20.5032 11.5834 19.6666C10.7468 18.83 10.1952 17.7509 10.0073 16.5828C9.81932 15.4147 10.0045 14.217 10.5364 13.1602C11.0683 12.1034 11.9199 11.2412 12.9701 10.6963C14.0203 10.1514 15.2156 9.95145 16.3859 10.125C17.5797 10.302 18.6849 10.8583 19.5383 11.7117C20.3917 12.5651 20.948 13.6703 21.125 14.8641Z" stroke="white" stroke-width="2" stroke-linecap="round" stroke-linejoin="round"/>
</svg>
