<svg width="17" height="24" viewBox="0 0 17 24" fill="none" xmlns="http://www.w3.org/2000/svg">
<path fill-rule="evenodd" clip-rule="evenodd" d="M3.16443 3.66901C4.64095 2.223 6.41945 1.5 8.5 1.5C10.5805 1.5 12.3507 2.21478 13.8104 3.64437C15.2701 5.07395 16 6.8075 16 8.84507C16 9.86385 15.7399 11.0305 15.2198 12.3451C14.6997 13.6596 14.0705 14.892 13.3322 16.0423C12.594 17.1925 11.8641 18.2688 11.1426 19.2711C10.4211 20.2735 9.80873 21.0704 9.30537 21.662L8.5 22.5C8.29866 22.27 8.0302 21.966 7.69463 21.588C7.35906 21.2101 6.75504 20.4542 5.88255 19.3204C5.01006 18.1866 4.24665 17.0857 3.59228 16.0176C2.93792 14.9495 2.34228 13.7418 1.80537 12.3944C1.26845 11.0469 1 9.86385 1 8.84507C1 6.8075 1.72147 5.08217 3.16443 3.66901Z" stroke="white" stroke-width="2" stroke-linecap="round" stroke-linejoin="round"/>
<path d="M9.65385 9.08333C9.65385 9.72767 9.13725 10.25 8.5 10.25C7.86275 10.25 7.34615 9.72767 7.34615 9.08333C7.34615 8.439 7.86275 7.91667 8.5 7.91667C9.13725 7.91667 9.65385 8.439 9.65385 9.08333Z" stroke="white" stroke-width="2" stroke-linecap="round" stroke-linejoin="round"/>
</svg>
