<svg width="28" height="28" viewBox="0 0 28 28" fill="none" xmlns="http://www.w3.org/2000/svg">
<path d="M21.9496 23.4445C21.2278 20.1594 18.5078 18.2236 13.5699 18.2236C8.63204 18.2236 5.91164 20.1594 5.18991 23.4445M13.5697 26.6709C20.5118 26.6709 26.1395 20.9979 26.1395 14C26.1395 7.00205 20.5118 1.3291 13.5697 1.3291C6.62766 1.3291 1 7.00205 1 14C1 20.9979 6.62766 26.6709 13.5697 26.6709ZM13.5697 14C15.4319 14 16.363 12.9944 16.363 10.4803C16.363 7.96623 15.4319 6.96061 13.5697 6.96061C11.7076 6.96061 10.7765 7.96623 10.7765 10.4803C10.7765 12.9944 11.7076 14 13.5697 14Z" stroke="white" stroke-width="2" stroke-linecap="round" stroke-linejoin="round"/>
</svg>
