<svg width="55" height="41" viewBox="0 0 55 41" fill="none" xmlns="http://www.w3.org/2000/svg">
<g filter="url(#filter0_dd_991_6963)">
<rect x="7.74767" y="3.96832" width="39.3053" height="25.3217" rx="4.53522" fill="white"/>
<rect x="7.65319" y="3.87384" width="39.4942" height="25.5106" rx="4.62971" stroke="#D6DCE5" stroke-width="0.188968"/>
<path d="M30.2237 11.4293H24.4366V21.829H30.2237V11.4293Z" fill="#FF5F00"/>
<path d="M24.8041 16.6291C24.8032 15.6276 25.0301 14.6389 25.4678 13.738C25.9054 12.8372 26.5423 12.0477 27.3302 11.4293C26.3545 10.6624 25.1827 10.1855 23.9488 10.053C22.7149 9.92059 21.4686 10.138 20.3524 10.6804C19.2362 11.2228 18.2951 12.0682 17.6367 13.1202C16.9783 14.1721 16.6291 15.3881 16.6291 16.6291C16.6291 17.8701 16.9783 19.0861 17.6367 20.1381C18.2951 21.19 19.2362 22.0355 20.3524 22.5779C21.4686 23.1203 22.7149 23.3377 23.9488 23.2052C25.1827 23.0728 26.3545 22.5959 27.3302 21.8289C26.5423 21.2106 25.9054 20.4211 25.4678 19.5202C25.0301 18.6193 24.8032 17.6307 24.8041 16.6291Z" fill="#EB001B"/>
<path d="M38.0309 16.6291C38.031 17.8701 37.6818 19.0861 37.0235 20.138C36.3651 21.19 35.424 22.0355 34.3079 22.5779C33.1917 23.1203 31.9454 23.3377 30.7115 23.2052C29.4776 23.0728 28.3058 22.5959 27.3302 21.8289C28.1174 21.21 28.7538 20.4203 29.1913 19.5196C29.6289 18.6189 29.8563 17.6305 29.8563 16.6291C29.8563 15.6277 29.6289 14.6394 29.1913 13.7387C28.7538 12.8379 28.1174 12.0483 27.3302 11.4293C28.3058 10.6624 29.4776 10.1855 30.7115 10.053C31.9454 9.92059 33.1917 10.138 34.3079 10.6804C35.424 11.2228 36.3651 12.0683 37.0235 13.1202C37.6818 14.1722 38.031 15.3881 38.0309 16.6291Z" fill="#F79E1B"/>
<path d="M37.3999 20.7275V20.5146H37.4858V20.4712H37.2671V20.5146H37.353V20.7275H37.3999ZM37.8244 20.7275V20.4708H37.7574L37.6803 20.6473L37.6032 20.4708H37.5361V20.7275H37.5834V20.5338L37.6557 20.7008H37.7048L37.7771 20.5334V20.7275H37.8244Z" fill="#F79E1B"/>
</g>
<defs>
<filter id="filter0_dd_991_6963" x="8.9407e-08" y="5.48363e-06" width="54.8006" height="40.817" filterUnits="userSpaceOnUse" color-interpolation-filters="sRGB">
<feFlood flood-opacity="0" result="BackgroundImageFix"/>
<feColorMatrix in="SourceAlpha" type="matrix" values="0 0 0 0 0 0 0 0 0 0 0 0 0 0 0 0 0 0 127 0" result="hardAlpha"/>
<feOffset dy="0.377935"/>
<feGaussianBlur stdDeviation="1.88968"/>
<feColorMatrix type="matrix" values="0 0 0 0 0.717647 0 0 0 0 0.717647 0 0 0 0 0.717647 0 0 0 0.08 0"/>
<feBlend mode="normal" in2="BackgroundImageFix" result="effect1_dropShadow_991_6963"/>
<feColorMatrix in="SourceAlpha" type="matrix" values="0 0 0 0 0 0 0 0 0 0 0 0 0 0 0 0 0 0 127 0" result="hardAlpha"/>
<feOffset dy="3.77935"/>
<feGaussianBlur stdDeviation="3.77935"/>
<feColorMatrix type="matrix" values="0 0 0 0 0.717647 0 0 0 0 0.717647 0 0 0 0 0.717647 0 0 0 0.08 0"/>
<feBlend mode="normal" in2="effect1_dropShadow_991_6963" result="effect2_dropShadow_991_6963"/>
<feBlend mode="normal" in="SourceGraphic" in2="effect2_dropShadow_991_6963" result="shape"/>
</filter>
</defs>
</svg>
