<svg width="29" height="31" viewBox="0 0 29 31" fill="none" xmlns="http://www.w3.org/2000/svg">
<path d="M1 14.7062V10.2522C1 9.14764 1.89543 8.2522 3 8.2522H7M1 14.7062H28M1 14.7062H2.5V27.2277C2.5 28.3322 3.39543 29.2277 4.5 29.2277H14.5M28 14.7062V10.2522C28 9.14764 27.1046 8.2522 26 8.2522H22M28 14.7062C27.1716 14.7062 26.5 15.3778 26.5 16.2062V27.2277C26.5 28.3322 25.6046 29.2277 24.5 29.2277H14.5M14.5 8.2522V29.2277M14.5 8.2522H7M14.5 8.2522H22M14.5 8.2522V6.63871M7 8.2522L6.35509 5.47736C5.9179 3.59632 7.34602 1.79822 9.2772 1.79822H9.82986C10.8683 1.79822 11.8328 2.3352 12.3798 3.21782L14.5 6.63871M22 8.2522L22.6449 5.47736C23.0821 3.59632 21.654 1.79822 19.7228 1.79822H19.1701C18.1317 1.79822 17.1672 2.3352 16.6202 3.21782L14.5 6.63871" stroke="#F5F50C" stroke-width="2" stroke-linecap="round" stroke-linejoin="round"/>
</svg>
