<svg width="34" height="26" viewBox="0 0 34 26" fill="none" xmlns="http://www.w3.org/2000/svg">
<path d="M32.0938 1.43703C30.7471 2.32359 29.2561 3.00167 27.6781 3.44515C26.8312 2.53626 25.7056 1.89206 24.4536 1.59968C23.2017 1.3073 21.8837 1.38085 20.6779 1.81037C19.4722 2.2399 18.4369 3.00468 17.712 4.00128C16.9871 4.99788 16.6077 6.17822 16.625 7.38265V8.69515C14.1537 8.75496 11.7049 8.24341 9.49673 7.20605C7.28855 6.16869 5.38951 4.63774 3.96875 2.74953C3.96875 2.74953 -1.65625 14.562 11 19.812C8.10387 21.6469 4.65381 22.5669 1.15625 22.437C13.8125 28.9995 29.2812 22.437 29.2812 7.34328C29.28 6.97768 29.2423 6.61299 29.1688 6.2539C30.604 4.93286 31.6168 3.26496 32.0938 1.43703Z" stroke="white" stroke-width="2" stroke-linecap="round" stroke-linejoin="round"/>
</svg>
