<svg width="45" height="45" viewBox="0 0 45 45" fill="none" xmlns="http://www.w3.org/2000/svg">
<circle cx="22.5" cy="22.5" r="22.5" fill="#176C8E"/>
<path d="M36.2172 11.8086C35.4247 11.0157 34.4837 10.3867 33.448 9.95754C32.4122 9.5284 31.3021 9.30751 30.181 9.30751C29.0599 9.30751 27.9498 9.5284 26.9141 9.95754C25.8784 10.3867 24.9374 11.0157 24.1448 11.8086L22.5 13.4534L20.8552 11.8086C19.2543 10.2077 17.083 9.30834 14.819 9.30834C12.5549 9.30834 10.3837 10.2077 8.78275 11.8086C7.18185 13.4095 6.28247 15.5808 6.28247 17.8448C6.28247 20.1088 7.18185 22.2801 8.78275 23.881L22.5 37.5983L36.2172 23.881C37.0102 23.0885 37.6392 22.1475 38.0683 21.1118C38.4975 20.076 38.7183 18.9659 38.7183 17.8448C38.7183 16.7237 38.4975 15.6136 38.0683 14.5779C37.6392 13.5422 37.0102 12.6012 36.2172 11.8086Z" stroke="white" stroke-width="2" stroke-linecap="round" stroke-linejoin="round"/>
</svg>
