<svg width="45" height="45" viewBox="0 0 45 45" fill="none" xmlns="http://www.w3.org/2000/svg">
<rect width="45" height="45" rx="22.5" fill="#176C8E"/>
<path d="M8.25 13L13 6.66667H32L36.75 13M8.25 13V35.1667C8.25 36.0065 8.58363 36.812 9.1775 37.4058C9.77136 37.9997 10.5768 38.3333 11.4167 38.3333H33.5833C34.4232 38.3333 35.2286 37.9997 35.8225 37.4058C36.4164 36.812 36.75 36.0065 36.75 35.1667V13M8.25 13H36.75M28.8333 19.3333C28.8333 21.013 28.1661 22.6239 26.9783 23.8117C25.7906 24.9994 24.1797 25.6667 22.5 25.6667C20.8203 25.6667 19.2094 24.9994 18.0217 23.8117C16.8339 22.6239 16.1667 21.013 16.1667 19.3333" stroke="white" stroke-width="2" stroke-linecap="round" stroke-linejoin="round"/>
</svg>
