<svg width="12" height="17" viewBox="0 0 12 17" fill="none" xmlns="http://www.w3.org/2000/svg">
<g clip-path="url(#clip0_349_1648)">
<path d="M9.80185 8.93848H1.86477C1.62671 8.93848 1.49378 9.18983 1.64121 9.36143L5.60975 13.9632C5.72334 14.0949 5.94207 14.0949 6.05688 13.9632L10.0254 9.36143C10.1728 9.18983 10.0399 8.93848 9.80185 8.93848Z" fill="#B0B0B0"/>
</g>
<g clip-path="url(#clip1_349_1648)">
<path d="M10.0254 7.63903L6.05688 3.03727C5.94328 2.90555 5.72455 2.90555 5.60975 3.03727L1.64121 7.63903C1.49378 7.81063 1.62671 8.06199 1.86477 8.06199H9.80185C10.0399 8.06199 10.1728 7.81063 10.0254 7.63903Z" fill="#B0B0B0"/>
</g>
<defs>
<clipPath id="clip0_349_1648">
<rect width="11" height="5" fill="white" transform="translate(0.333313 9)"/>
</clipPath>
<clipPath id="clip1_349_1648">
<rect width="11" height="5" fill="white" transform="translate(0.333313 3)"/>
</clipPath>
</defs>
</svg>
