<svg width="45" height="45" viewBox="0 0 45 45" fill="none" xmlns="http://www.w3.org/2000/svg">
<rect width="45" height="45" rx="22.5" fill="#176C8E"/>
<path d="M33.1666 34.5V31.8333C33.1666 30.4188 32.6047 29.0623 31.6045 28.0621C30.6043 27.0619 29.2477 26.5 27.8333 26.5H17.1666C15.7521 26.5 14.3955 27.0619 13.3953 28.0621C12.3952 29.0623 11.8333 30.4188 11.8333 31.8333V34.5M27.8333 15.8333C27.8333 18.7789 25.4454 21.1667 22.4999 21.1667C19.5544 21.1667 17.1666 18.7789 17.1666 15.8333C17.1666 12.8878 19.5544 10.5 22.4999 10.5C25.4454 10.5 27.8333 12.8878 27.8333 15.8333Z" stroke="white" stroke-width="2" stroke-linecap="round" stroke-linejoin="round"/>
</svg>
